  0
SECTION
  2
HEADER
  9
$ACADVER
  1
AC1015
  9
$ACADMAINTVER
 70
     6
  9
$DWGCODEPAGE
  3
ANSI_1252
  9
$INSBASE
 10
0.0
 20
0.0
 30
0.0
  9
$EXTMIN
 10
-27.0
 20
-27.0
 30
0.0
  9
$EXTMAX
 10
27.0
 20
27.0
 30
0.0
  9
$LIMMIN
 10
0.0
 20
0.0
  9
$LIMMAX
 10
420.0
 20
297.0
  9
$ORTHOMODE
 70
     0
  9
$REGENMODE
 70
     1
  9
$FILLMODE
 70
     1
  9
$QTEXTMODE
 70
     0
  9
$MIRRTEXT
 70
     1
  9
$LTSCALE
 40
1.0
  9
$ATTMODE
 70
     1
  9
$TEXTSIZE
 40
3.5
  9
$TRACEWID
 40
1.0
  9
$TEXTSTYLE
  7
Standard
  9
$CLAYER
  8
0
  9
$CELTYPE
  6
ByLayer
  9
$CECOLOR
 62
   256
  9
$CELTSCALE
 40
1.0
  9
$DISPSILH
 70
     0
  9
$DIMSCALE
 40
1.0
  9
$DIMASZ
 40
3.302
  9
$DIMEXO
 40
0.0
  9
$DIMDLI
 40
3.75
  9
$DIMRND
 40
0.0
  9
$DIMDLE
 40
0.0
  9
$DIMEXE
 40
1.0
  9
$DIMTP
 40
0.0
  9
$DIMTM
 40
0.0
  9
$DIMTXT
 40
3.5
  9
$DIMCEN
 40
2.5
  9
$DIMTSZ
 40
0.0
  9
$DIMTOL
 70
     0
  9
$DIMLIM
 70
     0
  9
$DIMTIH
 70
     1
  9
$DIMTOH
 70
     1
  9
$DIMSE1
 70
     0
  9
$DIMSE2
 70
     0
  9
$DIMTAD
 70
     1
  9
$DIMZIN
 70
     1
  9
$DIMBLK
  1

  9
$DIMASO
 70
     1
  9
$DIMSHO
 70
     1
  9
$DIMPOST
  1

  9
$DIMAPOST
  1

  9
$DIMALT
 70
     0
  9
$DIMALTD
 70
     3
  9
$DIMALTF
 40
0.0393700787
  9
$DIMLFAC
 40
1.0
  9
$DIMTOFL
 70
     1
  9
$DIMTVP
 40
0.0
  9
$DIMTIX
 70
     0
  9
$DIMSOXD
 70
     0
  9
$DIMSAH
 70
     0
  9
$DIMBLK1
  1

  9
$DIMBLK2
  1

  9
$DIMSTYLE
  2
ISO-25
  9
$DIMCLRD
 70
     0
  9
$DIMCLRE
 70
     0
  9
$DIMCLRT
 70
     0
  9
$DIMTFAC
 40
1.0
  9
$DIMGAP
 40
1.524
  9
$DIMJUST
 70
     0
  9
$DIMSD1
 70
     0
  9
$DIMSD2
 70
     0
  9
$DIMTOLJ
 70
     0
  9
$DIMTZIN
 70
     1
  9
$DIMALTZ
 70
     0
  9
$DIMALTTZ
 70
     0
  9
$DIMUPT
 70
     0
  9
$DIMDEC
 70
     2
  9
$DIMTDEC
 70
     2
  9
$DIMALTU
 70
     2
  9
$DIMALTTD
 70
     3
  9
$DIMTXSTY
  7
Standard
  9
$DIMAUNIT
 70
     0
  9
$DIMADEC
 70
     2
  9
$DIMALTRND
 40
0.0
  9
$DIMAZIN
 70
     0
  9
$DIMDSEP
 70
    44
  9
$DIMATFIT
 70
     3
  9
$DIMFRAC
 70
     0
  9
$DIMLDRBLK
  1

  9
$DIMLUNIT
 70
     2
  9
$DIMLWD
 70
    -2
  9
$DIMLWE
 70
    -2
  9
$DIMTMOVE
 70
     0
  9
$LUNITS
 70
     2
  9
$LUPREC
 70
     2
  9
$SKETCHINC
 40
1.0
  9
$FILLETRAD
 40
10.0
  9
$AUNITS
 70
     0
  9
$AUPREC
 70
     2
  9
$MENU
  1
.
  9
$ELEVATION
 40
0.0
  9
$PELEVATION
 40
0.0
  9
$THICKNESS
 40
0.0
  9
$LIMCHECK
 70
     0
  9
$CHAMFERA
 40
0.0
  9
$CHAMFERB
 40
0.0
  9
$CHAMFERC
 40
0.0
  9
$CHAMFERD
 40
0.0
  9
$SKPOLY
 70
     0
  9
$TDCREATE
 40
2460119.568026875
  9
$TDUCREATE
 40
2460119.068026875
  9
$TDUPDATE
 40
2460119.568125023
  9
$TDUUPDATE
 40
2460119.068125023
  9
$TDINDWG
 40
0.0000000116
  9
$TDUSRTIMER
 40
0.0000000116
  9
$USRTIMER
 70
     1
  9
$ANGBASE
 50
0.0
  9
$ANGDIR
 70
     0
  9
$PDMODE
 70
     0
  9
$PDSIZE
 40
-1.0
  9
$PLINEWID
 40
0.0
  9
$SPLFRAME
 70
     0
  9
$SPLINETYPE
 70
     6
  9
$SPLINESEGS
 70
     8
  9
$HANDSEED
  5
B7
  9
$SURFTAB1
 70
     6
  9
$SURFTAB2
 70
     6
  9
$SURFTYPE
 70
     6
  9
$SURFU
 70
     6
  9
$SURFV
 70
     6
  9
$UCSBASE
  2

  9
$UCSNAME
  2

  9
$UCSORG
 10
0.0
 20
0.0
 30
0.0
  9
$UCSXDIR
 10
1.0
 20
0.0
 30
0.0
  9
$UCSYDIR
 10
0.0
 20
1.0
 30
0.0
  9
$UCSORTHOREF
  2

  9
$UCSORTHOVIEW
 70
     0
  9
$UCSORGTOP
 10
0.0
 20
0.0
 30
0.0
  9
$UCSORGBOTTOM
 10
0.0
 20
0.0
 30
0.0
  9
$UCSORGLEFT
 10
0.0
 20
0.0
 30
0.0
  9
$UCSORGRIGHT
 10
0.0
 20
0.0
 30
0.0
  9
$UCSORGFRONT
 10
0.0
 20
0.0
 30
0.0
  9
$UCSORGBACK
 10
0.0
 20
0.0
 30
0.0
  9
$PUCSBASE
  2

  9
$PUCSNAME
  2

  9
$PUCSORG
 10
0.0
 20
0.0
 30
0.0
  9
$PUCSXDIR
 10
1.0
 20
0.0
 30
0.0
  9
$PUCSYDIR
 10
0.0
 20
1.0
 30
0.0
  9
$PUCSORTHOREF
  2

  9
$PUCSORTHOVIEW
 70
     0
  9
$PUCSORGTOP
 10
0.0
 20
0.0
 30
0.0
  9
$PUCSORGBOTTOM
 10
0.0
 20
0.0
 30
0.0
  9
$PUCSORGLEFT
 10
0.0
 20
0.0
 30
0.0
  9
$PUCSORGRIGHT
 10
0.0
 20
0.0
 30
0.0
  9
$PUCSORGFRONT
 10
0.0
 20
0.0
 30
0.0
  9
$PUCSORGBACK
 10
0.0
 20
0.0
 30
0.0
  9
$USERI1
 70
     0
  9
$USERI2
 70
     0
  9
$USERI3
 70
     0
  9
$USERI4
 70
     0
  9
$USERI5
 70
     0
  9
$USERR1
 40
0.0
  9
$USERR2
 40
0.0
  9
$USERR3
 40
0.0
  9
$USERR4
 40
0.0
  9
$USERR5
 40
0.0
  9
$WORLDVIEW
 70
     1
  9
$SHADEDGE
 70
     3
  9
$SHADEDIF
 70
    70
  9
$TILEMODE
 70
     1
  9
$MAXACTVP
 70
    64
  9
$PINSBASE
 10
0.0
 20
0.0
 30
0.0
  9
$PLIMCHECK
 70
     0
  9
$PEXTMIN
 10
1.0000000000E+20
 20
1.0000000000E+20
 30
1.0000000000E+20
  9
$PEXTMAX
 10
-1.0000000000E+20
 20
-1.0000000000E+20
 30
-1.0000000000E+20
  9
$PLIMMIN
 10
0.0
 20
0.0
  9
$PLIMMAX
 10
420.0
 20
297.0
  9
$UNITMODE
 70
     0
  9
$VISRETAIN
 70
     1
  9
$PLINEGEN
 70
     0
  9
$PSLTSCALE
 70
     1
  9
$TREEDEPTH
 70
  3020
  9
$CMLSTYLE
  2
Standard
  9
$CMLJUST
 70
     0
  9
$CMLSCALE
 40
20.0
  9
$PROXYGRAPHICS
 70
     1
  9
$MEASUREMENT
 70
     1
  9
$CELWEIGHT
370
    -1
  9
$ENDCAPS
280
     0
  9
$JOINSTYLE
280
     0
  9
$LWDISPLAY
290
     1
  9
$INSUNITS
 70
     4
  9
$HYPERLINKBASE
  1

  9
$STYLESHEET
  1

  9
$XEDIT
290
     1
  9
$CEPSNTYPE
380
     0
  9
$PSTYLEMODE
290
     1
  9
$FINGERPRINTGUID
  2
{e8582031-b68a-4a0e-b231-6a3b748b20cc}
  9
$VERSIONGUID
  2
{FAEB1C32-E019-11D5-929B-00C0DF256EC4}
  9
$EXTNAMES
290
     1
  9
$PSVPSCALE
 40
0.0
  9
$OLESTARTUP
290
     0
  0
ENDSEC
  0
SECTION
  2
CLASSES
  0
CLASS
  1
ACDBDICTIONARYWDFLT
  2
AcDbDictionaryWithDefault
  3
ObjectDBX Classes
 90
        0
280
     0
281
     0
  0
CLASS
  1
VISUALSTYLE
  2
AcDbVisualStyle
  3
ObjectDBX Classes
 90
     4095
280
     0
281
     0
  0
CLASS
  1
MATERIAL
  2
AcDbMaterial
  3
ObjectDBX Classes
 90
     1153
280
     0
281
     0
  0
CLASS
  1
SCALE
  2
AcDbScale
  3
ObjectDBX Classes
 90
     1153
280
     0
281
     0
  0
CLASS
  1
TABLESTYLE
  2
AcDbTableStyle
  3
ObjectDBX Classes
 90
     4095
280
     0
281
     0
  0
CLASS
  1
MLEADERSTYLE
  2
AcDbMLeaderStyle
  3
ACDB_MLEADERSTYLE_CLASS
 90
     4095
280
     0
281
     0
  0
CLASS
  1
SUN
  2
AcDbSun
  3
SCENEOE
 90
     1153
280
     0
281
     0
  0
CLASS
  1
ACDBPLACEHOLDER
  2
AcDbPlaceHolder
  3
ObjectDBX Classes
 90
        0
280
     0
281
     0
  0
CLASS
  1
LAYOUT
  2
AcDbLayout
  3
ObjectDBX Classes
 90
        0
280
     0
281
     0
  0
ENDSEC
  0
SECTION
  2
TABLES
  0
TABLE
  2
VPORT
  5
8
330
0
100
AcDbSymbolTable
 70
     1
  0
VPORT
  5
29
330
8
100
AcDbSymbolTableRecord
100
AcDbViewportTableRecord
  2
*Active
 70
     0
 10
0.0
 20
0.0
 11
1.0
 21
1.0
 12
0.0
 22
0.0
 13
0.0
 23
0.0
 14
10.0
 24
10.0
 15
10.0
 25
10.0
 16
0.0
 26
0.0
 36
1.0
 17
0.0
 27
0.0
 37
0.0
 40
55.08
 41
1.0
 42
50.0
 43
0.0
 44
0.0
 50
0.0
 51
0.0
 71
     0
 72
   100
 73
     1
 74
     3
 75
     0
 76
     0
 77
     0
 78
     0
281
     0
 65
     1
110
0.0
120
0.0
130
0.0
111
1.0
121
0.0
131
0.0
112
0.0
122
1.0
132
0.0
 79
     0
146
0.0
  0
ENDTAB
  0
TABLE
  2
LTYPE
  5
5
330
0
100
AcDbSymbolTable
 70
     6
  0
LTYPE
  5
14
330
5
100
AcDbSymbolTableRecord
100
AcDbLinetypeTableRecord
  2
ByBlock
 70
     0
  3

 72
    65
 73
     0
 40
0.0
  0
LTYPE
  5
15
330
5
100
AcDbSymbolTableRecord
100
AcDbLinetypeTableRecord
  2
ByLayer
 70
     0
  3

 72
    65
 73
     0
 40
0.0
  0
LTYPE
  5
16
330
5
100
AcDbSymbolTableRecord
100
AcDbLinetypeTableRecord
  2
Continuous
 70
     0
  3
Solid line
 72
    65
 73
     0
 40
0.0
  0
LTYPE
  5
6E
330
5
100
AcDbSymbolTableRecord
100
AcDbLinetypeTableRecord
  2
HIDDEN
 70
     0
  3
Hidden __ __ __ __ __ __ __ __ __ __ __ __ __ __
 72
    65
 73
     2
 40
1.905
 49
1.27
 74
     0
 49
-0.635
 74
     0
  0
LTYPE
  5
6F
330
5
100
AcDbSymbolTableRecord
100
AcDbLinetypeTableRecord
  2
PHANTOM
 70
     0
  3
Phantom ______  __  __  ______  __  __  ______
 72
    65
 73
     6
 40
12.7
 49
6.35
 74
     0
 49
-1.27
 74
     0
 49
1.27
 74
     0
 49
-1.27
 74
     0
 49
1.27
 74
     0
 49
-1.27
 74
     0
  0
LTYPE
  5
70
330
5
100
AcDbSymbolTableRecord
100
AcDbLinetypeTableRecord
  2
CENTER
 70
     0
  3
Center ____ _ ____ _ ____ _ ____ _ ____ _ ____
 72
    65
 73
     4
 40
10.16
 49
6.35
 74
     0
 49
-1.27
 74
     0
 49
1.27
 74
     0
 49
-1.27
 74
     0
  0
LTYPE
  5
71
330
5
100
AcDbSymbolTableRecord
100
AcDbLinetypeTableRecord
  2
CENTERX2
 70
     0
  3
Center (2x) ________  __  ________  __  _____
 72
    65
 73
     4
 40
20.32
 49
12.7
 74
     0
 49
-2.54
 74
     0
 49
2.54
 74
     0
 49
-2.54
 74
     0
  0
LTYPE
  5
72
330
5
100
AcDbSymbolTableRecord
100
AcDbLinetypeTableRecord
  2
DOT2
 70
     0
  3
Dot (.5x) ........................................
 72
    65
 73
     2
 40
0.635
 49
0.0
 74
     0
 49
-0.635
 74
     0
  0
ENDTAB
  0
TABLE
  2
LAYER
  5
2
330
0
100
AcDbSymbolTable
 70
     1
  0
LAYER
  5
10
330
2
100
AcDbSymbolTableRecord
100
AcDbLayerTableRecord
  2
0
 70
     0
 62
     7
  6
Continuous
370
    -3
390
F
  0
ENDTAB
  0
TABLE
  2
STYLE
  5
3
330
0
100
AcDbSymbolTable
 70
     2
  0
STYLE
  5
11
330
3
100
AcDbSymbolTableRecord
100
AcDbTextStyleTableRecord
  2
Standard
 70
     0
 40
0.0
 41
1.0
 50
0.0
 71
     0
 42
3.5
  3
txt
  4

  0
STYLE
  5
B3
330
3
100
AcDbSymbolTableRecord
100
AcDbTextStyleTableRecord
  2
SLDTEXTSTYLE0
 70
     0
 40
0.0
 41
0.7
 50
0.0
 71
     0
 42
3.5
  3
TXT
  4

  0
ENDTAB
  0
TABLE
  2
VIEW
  5
6
330
0
100
AcDbSymbolTable
 70
     0
  0
ENDTAB
  0
TABLE
  2
UCS
  5
7
330
0
100
AcDbSymbolTable
 70
     0
  0
ENDTAB
  0
TABLE
  2
APPID
  5
9
330
0
100
AcDbSymbolTable
 70
     1
  0
APPID
  5
12
330
9
100
AcDbSymbolTableRecord
100
AcDbRegAppTableRecord
  2
ACAD
 70
     0
  0
ENDTAB
  0
TABLE
  2
DIMSTYLE
  5
A
330
0
100
AcDbSymbolTable
 70
     1
100
AcDbDimStyleTable
  0
DIMSTYLE
105
27
330
A
100
AcDbSymbolTableRecord
100
AcDbDimStyleTableRecord
  2
ISO-25
 70
     0
 41
2.5
 42
0.625
 43
3.75
 44
1.25
 73
     0
 74
     0
 77
     1
 78
     8
140
2.5
141
2.5
143
0.0393700787
147
0.625
171
     3
172
     1
178
     0
271
     2
272
     2
274
     3
278
    44
283
     0
284
     8
340
11
  0
ENDTAB
  0
TABLE
  2
BLOCK_RECORD
  5
1
330
0
100
AcDbSymbolTable
 70
     1
  0
BLOCK_RECORD
  5
1F
330
1
100
AcDbSymbolTableRecord
100
AcDbBlockTableRecord
  2
*Model_Space
340
22
  0
BLOCK_RECORD
  5
1B
330
1
100
AcDbSymbolTableRecord
100
AcDbBlockTableRecord
  2
*Paper_Space
340
1E
  0
BLOCK_RECORD
  5
23
330
1
100
AcDbSymbolTableRecord
100
AcDbBlockTableRecord
  2
*Paper_Space0
340
26
  0
ENDTAB
  0
ENDSEC
  0
SECTION
  2
BLOCKS
  0
BLOCK
  5
20
330
1F
100
AcDbEntity
  8
0
100
AcDbBlockBegin
  2
*Model_Space
 70
     0
 10
0.0
 20
0.0
 30
0.0
  3
*Model_Space
  1

  0
ENDBLK
  5
21
330
1F
100
AcDbEntity
  8
0
100
AcDbBlockEnd
  0
BLOCK
  5
1C
330
1B
100
AcDbEntity
 67
     1
  8
0
100
AcDbBlockBegin
  2
*Paper_Space
 70
     0
 10
0.0
 20
0.0
 30
0.0
  3
*Paper_Space
  1

  0
ENDBLK
  5
1D
330
1B
100
AcDbEntity
 67
     1
  8
0
100
AcDbBlockEnd
  0
BLOCK
  5
24
330
23
100
AcDbEntity
  8
0
100
AcDbBlockBegin
  2
*Paper_Space0
 70
     0
 10
0.0
 20
0.0
 30
0.0
  3
*Paper_Space0
  1

  0
ENDBLK
  5
25
330
23
100
AcDbEntity
  8
0
100
AcDbBlockEnd
  0
ENDSEC
  0
SECTION
  2
ENTITIES
  0
SPLINE
  5
83
330
1F
100
AcDbEntity
  8
0
  6
Continuous
 62
     7
370
    25
100
AcDbSpline
210
0.0
220
0.0
230
1.0
 70
     8
 71
     3
 72
    34
 73
    30
 74
     0
 42
0.00000001
 43
0.00000001
 40
0.0885711073568037
 40
0.0885711073568037
 40
0.0885711073568037
 40
0.0885711073568037
 40
0.125
 40
0.1875
 40
0.25
 40
0.3125
 40
0.375
 40
0.4375
 40
0.5
 40
0.53125
 40
0.5625
 40
0.59375
 40
0.625
 40
0.65625
 40
0.6875
 40
0.75
 40
0.78125
 40
0.8125
 40
0.84375
 40
0.875
 40
0.90625
 40
0.921875
 40
0.9296875
 40
0.9375
 40
0.9453125
 40
0.953125
 40
0.96875
 40
0.984375
 40
0.9936101035267801
 40
0.9936101035267801
 40
0.9936101035267801
 40
0.9936101035267801
 10
-8.38594515827131
 20
-16.87270737901678
 30
0.0
 10
-8.319469948793996
 20
-16.6776848827841
 30
0.0
 10
-8.13940254453789
 20
-16.12110933797041
 30
0.0
 10
-7.874017474619433
 20
-15.12647363437502
 30
0.0
 10
-7.688580163501827
 20
-13.98117405924617
 30
0.0
 10
-7.687089689752531
 20
-12.9887797813945
 30
0.0
 10
-7.882450811488272
 20
-12.34038591078255
 30
0.0
 10
-8.105574911276175
 20
-12.1017111069528
 30
0.0
 10
-8.427286636997163
 20
-11.93618588700357
 30
0.0
 10
-9.255887466368966
 20
-11.87358481801626
 30
0.0
 10
-10.06199338681042
 20
-11.84667687248471
 30
0.0
 10
-10.98053029744669
 20
-11.78078462835231
 30
0.0
 10
-12.03785500657508
 20
-11.54854401431617
 30
0.0
 10
-12.90136958838658
 20
-11.2000565012642
 30
0.0
 10
-14.05429048266842
 20
-10.68113436644242
 30
0.0
 10
-15.23123844123022
 20
-9.924658048033242
 30
0.0
 10
-16.12892713423611
 20
-8.661627787873725
 30
0.0
 10
-16.43370813723572
 20
-7.419671475572844
 30
0.0
 10
-16.36175097114961
 20
-6.266622793935188
 30
0.0
 10
-16.06877690054567
 20
-5.081044273107805
 30
0.0
 10
-15.59657541149627
 20
-4.134652827569998
 30
0.0
 10
-15.10628650249643
 20
-3.535992931131857
 30
0.0
 10
-14.77461308225963
 20
-3.227707307876327
 30
0.0
 10
-14.48827738873578
 20
-3.012714200155471
 30
0.0
 10
-14.21423679418964
 20
-2.847608080859108
 30
0.0
 10
-13.84022102419798
 20
-2.635292086611284
 30
0.0
 10
-12.93247498573906
 20
-2.101308455367064
 30
0.0
 10
-11.58406072755175
 20
-1.42330353356393
 30
0.0
 10
-10.62877559409352
 20
-1.06997176278728
 30
0.0
 10
-10.26171936267088
 20
-0.9593075484640252
 30
0.0
  0
CIRCLE
  5
85
330
1F
100
AcDbEntity
  8
0
  6
Continuous
 62
     7
370
    25
100
AcDbCircle
 10
-7.0
 20
0.0
 30
0.0
 40
1.250000000000068
  0
CIRCLE
  5
86
330
1F
100
AcDbEntity
  8
0
  6
Continuous
 62
     7
370
    25
100
AcDbCircle
 10
0.0
 20
-7.0
 30
0.0
 40
1.250000000000048
  0
CIRCLE
  5
87
330
1F
100
AcDbEntity
  8
0
  6
Continuous
 62
     7
370
    25
100
AcDbCircle
 10
7.0
 20
0.0
 30
0.0
 40
1.25000000000002
  0
CIRCLE
  5
88
330
1F
100
AcDbEntity
  8
0
  6
Continuous
 62
     7
370
    25
100
AcDbCircle
 10
-23.5
 20
0.0
 30
0.0
 40
1.249999999999996
  0
CIRCLE
  5
89
330
1F
100
AcDbEntity
  8
0
  6
Continuous
 62
     7
370
    25
100
AcDbCircle
 10
0.0
 20
-23.5
 30
0.0
 40
1.250000000000001
  0
CIRCLE
  5
8A
330
1F
100
AcDbEntity
  8
0
  6
Continuous
 62
     7
370
    25
100
AcDbCircle
 10
23.5
 20
0.0
 30
0.0
 40
1.249999999999996
  0
CIRCLE
  5
8B
330
1F
100
AcDbEntity
  8
0
  6
Continuous
 62
     7
370
    25
100
AcDbCircle
 10
0.0
 20
7.0
 30
0.0
 40
1.25
  0
CIRCLE
  5
8C
330
1F
100
AcDbEntity
  8
0
  6
Continuous
 62
     7
370
    25
100
AcDbCircle
 10
0.0
 20
0.0
 30
0.0
 40
4.0
  0
CIRCLE
  5
8D
330
1F
100
AcDbEntity
  8
0
  6
Continuous
 62
     7
370
    25
100
AcDbCircle
 10
0.0
 20
23.5
 30
0.0
 40
1.249999999999994
  0
CIRCLE
  5
8E
330
1F
100
AcDbEntity
  8
0
  6
Continuous
 62
     7
370
    25
100
AcDbCircle
 10
0.0
 20
0.0
 30
0.0
 40
27.0
  0
SPLINE
  5
8F
330
1F
100
AcDbEntity
  8
0
  6
Continuous
 62
     7
370
    25
100
AcDbSpline
210
0.0
220
0.0
230
1.0
 70
     8
 71
     3
 72
    34
 73
    30
 74
     0
 42
0.00000001
 43
0.00000001
 40
0.0811568229039168
 40
0.0811568229039168
 40
0.0811568229039168
 40
0.0811568229039168
 40
0.125
 40
0.1875
 40
0.25
 40
0.3125
 40
0.375
 40
0.4375
 40
0.5
 40
0.53125
 40
0.5625
 40
0.59375
 40
0.625
 40
0.65625
 40
0.6875
 40
0.75
 40
0.78125
 40
0.8125
 40
0.84375
 40
0.875
 40
0.90625
 40
0.921875
 40
0.9296875
 40
0.9375
 40
0.9453125
 40
0.953125
 40
0.96875
 40
0.984375
 40
0.9935318021880631
 40
0.9935318021880631
 40
0.9935318021880631
 40
0.9935318021880631
 10
8.381907961927059
 20
16.88258784589525
 30
0.0
 10
8.30200644220377
 20
16.65324589404049
 30
0.0
 10
8.108683110170166
 20
16.06382398081265
 30
0.0
 10
7.83851620263737
 20
15.04335892033857
 30
0.0
 10
7.66404605850733
 20
13.93030449351997
 30
0.0
 10
7.672917525112759
 20
12.97481012881745
 30
0.0
 10
7.868875383873299
 20
12.35993393601411
 30
0.0
 10
8.09461170976567
 20
12.11957875221359
 30
0.0
 10
8.439880369260882
 20
11.94745762340751
 30
0.0
 10
9.268619587621039
 20
11.87798156960891
 30
0.0
 10
10.07111731764686
 20
11.84282171596634
 30
0.0
 10
10.98385150307765
 20
11.76879198456733
 30
0.0
 10
12.03106163008304
 20
11.53386699335145
 30
0.0
 10
12.89126609022881
 20
11.18848628101308
 30
0.0
 10
14.04394933293909
 20
10.67394893838584
 30
0.0
 10
15.22381144634318
 20
9.924371514937334
 30
0.0
 10
16.12718592046659
 20
8.662713201164886
 30
0.0
 10
16.43311181810855
 20
7.418171723281352
 30
0.0
 10
16.36073095655525
 20
6.265768416749355
 30
0.0
 10
16.06805142193251
 20
5.080203115754085
 30
0.0
 10
15.59581970315867
 20
4.133782125990171
 30
0.0
 10
15.10532984915134
 20
3.535077717598273
 30
0.0
 10
14.77351376945334
 20
3.226799380939547
 30
0.0
 10
14.48704601198126
 20
3.011821513943544
 30
0.0
 10
14.21302553277859
 20
2.846799467321598
 30
0.0
 10
13.83913717635651
 20
2.634594588189215
 30
0.0
 10
12.93178675195954
 20
2.100819870652425
 30
0.0
 10
11.5865117552241
 20
1.424375715443
 30
0.0
 10
10.62382979264799
 20
1.069820683169425
 30
0.0
 10
10.26068820547121
 20
0.9599099204141294
 30
0.0
  0
SPLINE
  5
90
330
1F
100
AcDbEntity
  8
0
  6
Continuous
 62
     7
370
    25
100
AcDbSpline
210
0.0
220
0.0
230
1.0
 70
     8
 71
     3
 72
    37
 73
    33
 74
     0
 42
0.00000001
 43
0.00000001
 40
0.073430669878569
 40
0.073430669878569
 40
0.073430669878569
 40
0.073430669878569
 40
0.125
 40
0.1875
 40
0.25
 40
0.3125
 40
0.375
 40
0.4375
 40
0.46875
 40
0.5
 40
0.53125
 40
0.5625
 40
0.59375
 40
0.625
 40
0.65625
 40
0.6875
 40
0.71875
 40
0.75
 40
0.78125
 40
0.8125
 40
0.84375
 40
0.875
 40
0.890625
 40
0.90625
 40
0.921875
 40
0.9296875
 40
0.9375
 40
0.9453125
 40
0.953125
 40
0.96875
 40
0.984375
 40
0.9893006035849805
 40
0.9893006035849805
 40
0.9893006035849805
 40
0.9893006035849805
 10
6.112898776275429
 20
-17.94786314099254
 30
0.0
 10
6.007301797602916
 20
-17.65088622723495
 30
0.0
 10
5.768815719359112
 20
-16.93536766873401
 30
0.0
 10
5.429669957062168
 20
-15.66849680927235
 30
0.0
 10
5.191806498344254
 20
-14.23013533718629
 30
0.0
 10
5.17540797352103
 20
-12.76183406644629
 30
0.0
 10
5.524401823007058
 20
-11.28329158788213
 30
0.0
 10
6.409718684253554
 20
-10.1669917510471
 30
0.0
 10
7.454125677971085
 20
-9.625091073386175
 30
0.0
 10
8.350033291908781
 20
-9.425426449504124
 30
0.0
 10
9.170309196132816
 20
-9.376479515968313
 30
0.0
 10
9.947678619007066
 20
-9.350570153715362
 30
0.0
 10
10.67524053438883
 20
-9.288463206850038
 30
0.0
 10
11.23721113847191
 20
-9.169079776490152
 30
0.0
 10
11.93203645305181
 20
-8.896388209554143
 30
0.0
 10
12.63769781537438
 20
-8.576891163839525
 30
0.0
 10
13.21183482061608
 20
-8.233451200937997
 30
0.0
 10
13.61315057584797
 20
-7.882315625315295
 30
0.0
 10
13.81306596408339
 20
-7.569945647374914
 30
0.0
 10
13.89683847058807
 20
-7.281813358997954
 30
0.0
 10
13.87953996411396
 20
-6.641593543902212
 30
0.0
 10
13.73039878016159
 20
-6.059941378627045
 30
0.0
 10
13.55175680985525
 20
-5.653270155626465
 30
0.0
 10
13.3967028445752
 20
-5.396835281842292
 30
0.0
 10
13.26528303851361
 20
-5.238744867085361
 30
0.0
 10
13.16062668534232
 20
-5.143592190168615
 30
0.0
 10
13.10191855379127
 20
-5.098485448456166
 30
0.0
 10
12.97964875329546
 20
-5.022079201162499
 30
0.0
 10
12.57799536161308
 20
-4.793459500455035
 30
0.0
 10
11.72474205401891
 20
-4.291783432984907
 30
0.0
 10
10.68410570370905
 20
-3.772076296118993
 30
0.0
 10
10.06433752795564
 20
-3.53195196747734
 30
0.0
 10
9.917769994324512
 20
-3.479299421302842
 30
0.0
  0
SPLINE
  5
91
330
1F
100
AcDbEntity
  8
0
  6
Continuous
 62
     7
370
    25
100
AcDbSpline
210
0.0
220
0.0
230
1.0
 70
     8
 71
     3
 72
    37
 73
    33
 74
     0
 42
0.00000001
 43
0.00000001
 40
0.0673733147389037
 40
0.0673733147389037
 40
0.0673733147389037
 40
0.0673733147389037
 40
0.125
 40
0.1875
 40
0.25
 40
0.3125
 40
0.375
 40
0.4375
 40
0.46875
 40
0.5
 40
0.53125
 40
0.5625
 40
0.59375
 40
0.625
 40
0.65625
 40
0.6875
 40
0.71875
 40
0.75
 40
0.78125
 40
0.8125
 40
0.84375
 40
0.875
 40
0.890625
 40
0.90625
 40
0.921875
 40
0.9296875
 40
0.9375
 40
0.9453125
 40
0.953125
 40
0.96875
 40
0.984375
 40
0.9892991699869218
 40
0.9892991699869218
 40
0.9892991699869218
 40
0.9892991699869218
 10
6.105694275697557
 20
17.94432300923777
 30
0.0
 10
5.987744316414367
 20
17.61817347446357
 30
0.0
 10
5.736244909224784
 20
16.87254161901436
 30
0.0
 10
5.392085426222606
 20
15.5779287958219
 30
0.0
 10
5.165001465002039
 20
14.1619240580664
 30
0.0
 10
5.162032486678827
 20
12.71606383259566
 30
0.0
 10
5.531376946277086
 20
11.25656345053996
 30
0.0
 10
6.425565101132046
 20
10.16832997530089
 30
0.0
 10
7.457974124182027
 20
9.639198769897689
 30
0.0
 10
8.342543019056007
 20
9.437703347389306
 30
0.0
 10
9.157376635980524
 20
9.381112058935239
 30
0.0
 10
9.93188200661626
 20
9.347282574373736
 30
0.0
 10
10.65944548239698
 20
9.278940921788472
 30
0.0
 10
11.2286460851821
 20
9.155126894963669
 30
0.0
 10
11.92774657378518
 20
8.88161639323707
 30
0.0
 10
12.63604323852599
 20
8.563670279739897
 30
0.0
 10
13.21230668418697
 20
8.222358626306942
 30
0.0
 10
13.61399077610179
 20
7.873804728487341
 30
0.0
 10
13.81229954626141
 20
7.565496627888556
 30
0.0
 10
13.89549637785016
 20
7.281312128927738
 30
0.0
 10
13.87823120392354
 20
6.639848030838853
 30
0.0
 10
13.72913615519352
 20
6.058551379520068
 30
0.0
 10
13.55062461193016
 20
5.652134143172121
 30
0.0
 10
13.39567621955561
 20
5.39593233509441
 30
0.0
 10
13.26432852326882
 20
5.237983983932634
 30
0.0
 10
13.1596638208699
 20
5.14287047073377
 30
0.0
 10
13.10090948008799
 20
5.097749148722497
 30
0.0
 10
12.97842316108828
 20
5.021248623600264
 30
0.0
 10
12.57660600221756
 20
4.792594285488466
 30
0.0
 10
11.72371985297767
 20
4.29112662031315
 30
0.0
 10
10.68367828939695
 20
3.771753763463949
 30
0.0
 10
10.06421403176001
 20
3.531796373534945
 30
0.0
 10
9.917737590394148
 20
3.479189108310073
 30
0.0
  0
SPLINE
  5
93
330
1F
100
AcDbEntity
  8
0
  6
Continuous
 62
     7
370
    25
100
AcDbSpline
210
0.0
220
0.0
230
1.0
 70
     8
 71
     3
 72
    37
 73
    33
 74
     0
 42
0.00000001
 43
0.00000001
 40
0.0693465549199459
 40
0.0693465549199459
 40
0.0693465549199459
 40
0.0693465549199459
 40
0.125
 40
0.1875
 40
0.25
 40
0.3125
 40
0.375
 40
0.4375
 40
0.46875
 40
0.5
 40
0.53125
 40
0.5625
 40
0.59375
 40
0.625
 40
0.65625
 40
0.6875
 40
0.71875
 40
0.75
 40
0.78125
 40
0.8125
 40
0.84375
 40
0.875
 40
0.890625
 40
0.90625
 40
0.921875
 40
0.9296875
 40
0.9375
 40
0.9453125
 40
0.953125
 40
0.96875
 40
0.984375
 40
0.9892986435279421
 40
0.9892986435279421
 40
0.9892986435279421
 40
0.9892986435279421
 10
-6.107783696871919
 20
17.9451534171297
 30
0.0
 10
-5.993042005538523
 20
17.62651024658344
 30
0.0
 10
-5.744496451803099
 20
16.88764920614432
 30
0.0
 10
-5.40121709481745
 20
15.60047505932365
 30
0.0
 10
-5.170938786140487
 20
14.1778155512152
 30
0.0
 10
-5.164642087324169
 20
12.72630398783705
 30
0.0
 10
-5.529593154858813
 20
11.26226568098972
 30
0.0
 10
-6.42221840555142
 20
10.16816806984456
 30
0.0
 10
-7.456978449881363
 20
9.636564411818036
 30
0.0
 10
-8.3436553602008
 20
9.435395122515963
 30
0.0
 10
-9.159513397174516
 20
9.380214885138766
 30
0.0
 10
-9.93455446854127
 20
9.347855415908581
 30
0.0
 10
-10.66211334311127
 20
9.280670847417046
 30
0.0
 10
-11.22995729287801
 20
9.157678588565949
 30
0.0
 10
-11.92825120745779
 20
8.884298538111057
 30
0.0
 10
-12.63604923138299
 20
8.56603890582246
 30
0.0
 10
-13.21190971931191
 20
8.224307825567296
 30
0.0
 10
-13.61352028211507
 20
7.875254277396201
 30
0.0
 10
-13.81212769100751
 20
7.56616968181334
 30
0.0
 10
-13.89542466464984
 20
7.281234025589121
 30
0.0
 10
-13.87813933627298
 20
6.63991602259551
 30
0.0
 10
-13.7290508725342
 20
6.058586056904335
 30
0.0
 10
-13.55053240516129
 20
5.652168501962752
 30
0.0
 10
-13.39557641801194
 20
5.395963110130871
 30
0.0
 10
-13.26422102094116
 20
5.238013923220764
 30
0.0
 10
-13.15954507944402
 20
5.142897705394207
 30
0.0
 10
-13.1007876252756
 20
5.097777089287896
 30
0.0
 10
-12.97825387429746
 20
5.021254727366983
 30
0.0
 10
-12.57638536432043
 20
4.792575773197895
 30
0.0
 10
-11.7235506168752
 20
4.291102319927879
 30
0.0
 10
-10.68360913921656
 20
3.771743926408087
 30
0.0
 10
-10.06420316838898
 20
3.531797735842227
 30
0.0
 10
-9.917750415277641
 20
3.479196529396221
 30
0.0
  0
LWPOLYLINE
  5
94
330
1F
100
AcDbEntity
  8
0
  6
Continuous
 62
     7
370
    25
100
AcDbPolyline
 90
        9
 70
   128
 43
0.0
 10
9.5503768108
 20
-0.0016973749
 10
9.55037689
 20
-0.0011696326
 10
9.5503769401
 20
-0.0006418903
 10
9.550376961
 20
-0.0001141481
 10
9.5503769527
 20
0.0004135942
 10
9.5503769153
 20
0.0009413365
 10
9.5503768487
 20
0.0014690788
 10
9.5503767529
 20
0.001996821
 10
9.550376628
 20
0.0025245633
  0
SPLINE
  5
95
330
1F
100
AcDbEntity
  8
0
  6
Continuous
 62
     7
370
    25
100
AcDbSpline
210
0.0
220
0.0
230
1.0
 70
     8
 71
     3
 72
    34
 73
    30
 74
     0
 42
0.00000001
 43
0.00000001
 40
0.0885711073563275
 40
0.0885711073563275
 40
0.0885711073563275
 40
0.0885711073563275
 40
0.125
 40
0.1875
 40
0.25
 40
0.3125
 40
0.375
 40
0.4375
 40
0.5
 40
0.53125
 40
0.5625
 40
0.59375
 40
0.625
 40
0.65625
 40
0.6875
 40
0.75
 40
0.78125
 40
0.8125
 40
0.84375
 40
0.875
 40
0.90625
 40
0.921875
 40
0.9296875
 40
0.9375
 40
0.9453125
 40
0.953125
 40
0.96875
 40
0.984375
 40
0.9936101035267643
 40
0.9936101035267643
 40
0.9936101035267643
 40
0.9936101035267643
 10
8.385945158270662
 20
-16.87270737901759
 30
0.0
 10
8.319469948792488
 20
-16.67768488278261
 30
0.0
 10
8.139402544535473
 20
-16.1211093379665
 30
0.0
 10
7.874017474616302
 20
-15.12647363436814
 30
0.0
 10
7.688580163498772
 20
-13.98117405923928
 30
0.0
 10
7.687089689749543
 20
-12.98877978138761
 30
0.0
 10
7.882450811485333
 20
-12.34038591077567
 30
0.0
 10
8.105574911273253
 20
-12.10171110694595
 30
0.0
 10
8.427286636994257
 20
-11.93618588699674
 30
0.0
 10
9.255887466366062
 20
-11.87358481800948
 30
0.0
 10
10.06199338680751
 20
-11.84667687247798
 30
0.0
 10
10.98053029744379
 20
-11.78078462834565
 30
0.0
 10
12.03785500657219
 20
-11.54854401430959
 30
0.0
 10
12.90136958838371
 20
-11.20005650125768
 30
0.0
 10
14.0542904826656
 20
-10.68113436643597
 30
0.0
 10
15.23123844122745
 20
-9.924658048026881
 30
0.0
 10
16.12892713423342
 20
-8.661627787867422
 30
0.0
 10
16.43370813723311
 20
-7.419671475566569
 30
0.0
 10
16.36175097114709
 20
-6.266622793928907
 30
0.0
 10
16.06877690054323
 20
-5.081044273101505
 30
0.0
 10
15.5965754114939
 20
-4.134652827563665
 30
0.0
 10
15.10628650249411
 20
-3.535992931125489
 30
0.0
 10
14.77461308225732
 20
-3.227707307869936
 30
0.0
 10
14.48827738873348
 20
-3.012714200149059
 30
0.0
 10
14.21423679418736
 20
-2.847608080852677
 30
0.0
 10
13.84022102419572
 20
-2.635292086604827
 30
0.0
 10
12.93247498573683
 20
-2.101308455360545
 30
0.0
 10
11.5840607275501
 20
-1.423303533557584
 30
0.0
 10
10.62877559409259
 20
-1.069971762781053
 30
0.0
 10
10.26171936267062
 20
-0.9593075484578916
 30
0.0
  0
SPLINE
  5
98
330
1F
100
AcDbEntity
  8
0
  6
Continuous
 62
     7
370
    25
100
AcDbSpline
210
0.0
220
0.0
230
1.0
 70
     8
 71
     3
 72
    37
 73
    33
 74
     0
 42
0.00000001
 43
0.00000001
 40
0.0734306698785299
 40
0.0734306698785299
 40
0.0734306698785299
 40
0.0734306698785299
 40
0.125
 40
0.1875
 40
0.25
 40
0.3125
 40
0.375
 40
0.4375
 40
0.46875
 40
0.5
 40
0.53125
 40
0.5625
 40
0.59375
 40
0.625
 40
0.65625
 40
0.6875
 40
0.71875
 40
0.75
 40
0.78125
 40
0.8125
 40
0.84375
 40
0.875
 40
0.890625
 40
0.90625
 40
0.921875
 40
0.9296875
 40
0.9375
 40
0.9453125
 40
0.953125
 40
0.96875
 40
0.984375
 40
0.989300603584968
 40
0.989300603584968
 40
0.989300603584968
 40
0.989300603584968
 10
-6.112898776275385
 20
-17.94786314099249
 30
0.0
 10
-6.007301797602785
 20
-17.65088622723472
 30
0.0
 10
-5.768815719358867
 20
-16.93536766873357
 30
0.0
 10
-5.429669957061805
 20
-15.66849680927164
 30
0.0
 10
-5.191806498343837
 20
-14.2301353371856
 30
0.0
 10
-5.175407973520563
 20
-12.76183406644559
 30
0.0
 10
-5.524401823006543
 20
-11.28329158788142
 30
0.0
 10
-6.409718684252996
 20
-10.16699175104636
 30
0.0
 10
-7.454125677970511
 20
-9.625091073385398
 30
0.0
 10
-8.350033291908197
 20
-9.425426449503318
 30
0.0
 10
-9.17030919613223
 20
-9.376479515967477
 30
0.0
 10
-9.947678619006474
 20
-9.350570153714498
 30
0.0
 10
-10.67524053438824
 20
-9.28846320684915
 30
0.0
 10
-11.23721113847132
 20
-9.169079776489243
 30
0.0
 10
-11.9320364530512
 20
-8.896388209553216
 30
0.0
 10
-12.63769781537376
 20
-8.576891163838564
 30
0.0
 10
-13.21183482061545
 20
-8.23345120093702
 30
0.0
 10
-13.61315057584733
 20
-7.882315625314297
 30
0.0
 10
-13.81306596408274
 20
-7.569945647373912
 30
0.0
 10
-13.89683847058741
 20
-7.28181335899695
 30
0.0
 10
-13.87953996411328
 20
-6.64159354390121
 30
0.0
 10
-13.73039878016089
 20
-6.059941378626045
 30
0.0
 10
-13.55175680985453
 20
-5.653270155625473
 30
0.0
 10
-13.39670284457447
 20
-5.396835281841307
 30
0.0
 10
-13.26528303851288
 20
-5.238744867084378
 30
0.0
 10
-13.16062668534159
 20
-5.143592190167636
 30
0.0
 10
-13.10191855379053
 20
-5.09848544845519
 30
0.0
 10
-12.97964875329472
 20
-5.022079201161527
 30
0.0
 10
-12.57799536161233
 20
-4.793459500454079
 30
0.0
 10
-11.72474205401814
 20
-4.29178343298398
 30
0.0
 10
-10.68410570370863
 20
-3.77207629611828
 30
0.0
 10
-10.06433752795561
 20
-3.531951967476762
 30
0.0
 10
-9.917769994324834
 20
-3.479299421302377
 30
0.0
  0
LWPOLYLINE
  5
9A
330
1F
100
AcDbEntity
  8
0
  6
Continuous
 62
     7
370
    25
100
AcDbPolyline
 90
        9
 70
   128
 43
0.0
 10
-9.5503768223
 20
0.0016316549
 10
-9.5503768843
 20
0.0012155262
 10
-9.5503769282
 20
0.0007993975
 10
-9.550376954
 20
0.0003832687
 10
-9.5503769616
 20
-0.00003286
 10
-9.5503769511
 20
-0.0004489887
 10
-9.5503769225
 20
-0.0008651174
 10
-9.5503768757
 20
-0.0012812462
 10
-9.5503768108
 20
-0.0016973749
  0
SPLINE
  5
9B
330
1F
100
AcDbEntity
  8
0
  6
Continuous
 62
     7
370
    25
100
AcDbSpline
210
0.0
220
0.0
230
1.0
 70
     8
 71
     3
 72
    34
 73
    30
 74
     0
 42
0.00000001
 43
0.00000001
 40
0.0833832148219915
 40
0.0833832148219915
 40
0.0833832148219915
 40
0.0833832148219915
 40
0.125
 40
0.1875
 40
0.25
 40
0.3125
 40
0.375
 40
0.4375
 40
0.5
 40
0.53125
 40
0.5625
 40
0.59375
 40
0.625
 40
0.65625
 40
0.6875
 40
0.75
 40
0.78125
 40
0.8125
 40
0.84375
 40
0.875
 40
0.90625
 40
0.921875
 40
0.9296875
 40
0.9375
 40
0.9453125
 40
0.953125
 40
0.96875
 40
0.984375
 40
0.9936097739933881
 40
0.9936097739933881
 40
0.9936097739933881
 40
0.9936097739933881
 10
-8.38318074216408
 20
16.88001288427343
 30
0.0
 10
-8.306788225727953
 20
16.65957655483176
 30
0.0
 10
-8.116433186431538
 20
16.07750556006101
 30
0.0
 10
-7.847022712505899
 20
15.06327118530072
 30
0.0
 10
-7.66949066740076
 20
13.94154674604911
 30
0.0
 10
-7.675936835351205
 20
12.97764209682483
 30
0.0
 10
-7.871721670209424
 20
12.35610598882803
 30
0.0
 10
-8.09655643534153
 20
12.11644579724629
 30
0.0
 10
-8.437268015347156
 20
11.94555593576683
 30
0.0
 10
-9.26597002791477
 20
11.87737051446054
 30
0.0
 10
-10.06914873237721
 20
11.84374588605516
 30
0.0
 10
-10.98299076129577
 20
11.77122365798783
 30
0.0
 10
-12.03212911372368
 20
11.53676883472524
 30
0.0
 10
-12.8929569148909
 20
11.19078440154447
 30
0.0
 10
-14.04568892951299
 20
10.67539666709576
 30
0.0
 10
-15.22502419612469
 20
9.924481098285627
 30
0.0
 10
-16.12734535351951
 20
8.662487812893627
 30
0.0
 10
-16.43302431566301
 20
7.418347937400449
 30
0.0
 10
-16.36071766520827
 20
6.265882856219036
 30
0.0
 10
-16.06801902138846
 20
5.080296427701063
 30
0.0
 10
-15.59576273456545
 20
4.133827461678444
 30
0.0
 10
-15.10522286602752
 20
3.535092160582814
 30
0.0
 10
-14.77337304858129
 20
3.22680164592475
 30
0.0
 10
-14.48686572056228
 20
3.01181382096391
 30
0.0
 10
-14.21285562464487
 20
2.846812002414538
 30
0.0
 10
-13.83901910520009
 20
2.634637656679975
 30
0.0
 10
-12.93173658746313
 20
2.100862467673543
 30
0.0
 10
-11.58394525091654
 20
1.423094467549693
 30
0.0
 10
-10.62881097308239
 20
1.069879910762086
 30
0.0
 10
-10.26179090249978
 20
0.9592565089837216
 30
0.0
  0
ARC
  5
9D
330
1F
100
AcDbEntity
  8
0
  6
Continuous
 62
     7
370
    25
100
AcDbCircle
 10
-9.3324697719
 20
-16.5500757689
 30
0.0
 40
1.00000000000003
100
AcDbArc
 50
240.5816585967
 51
341.1778516093
  0
ARC
  5
9E
330
1F
100
AcDbEntity
  8
0
  6
Continuous
 62
     7
370
    25
100
AcDbCircle
 10
-10.550376795
 20
-0.0018751035
 30
0.0
 40
1.000000000000005
100
AcDbArc
 50
286.7775955203
 51
0.0101830973
  0
ARC
  5
9F
330
1F
100
AcDbEntity
  8
0
  6
Continuous
 62
     7
370
    25
100
AcDbCircle
 10
-10.5503768077
 20
0.0018025021
 30
0.0
 40
1.000000000000032
100
AcDbArc
 50
359.990211178
 51
73.2266848434
  0
ARC
  5
A0
330
1F
100
AcDbEntity
  8
0
  6
Continuous
 62
     7
370
    25
100
AcDbCircle
 10
-9.328050644
 20
16.5525669062
 30
0.0
 40
1.000000000000001
100
AcDbArc
 50
19.1138298676
 51
119.4030436896
  0
ARC
  5
A1
330
1F
100
AcDbEntity
  8
0
  6
Continuous
 62
     7
370
    25
100
AcDbCircle
 10
5.1706892808
 20
-18.2828874186
 30
0.0
 40
1.000000000000014
100
AcDbArc
 50
285.7917408494
 51
19.5740142602
  0
ARC
  5
A2
330
1F
100
AcDbEntity
  8
0
  6
Continuous
 62
     7
370
    25
100
AcDbCircle
 10
9.5796859197
 20
-4.4204153326
 30
0.0
 40
1.000000000000009
100
AcDbArc
 50
70.239811541
 51
155.2296826269
  0
ARC
  5
A3
330
1F
100
AcDbEntity
  8
0
  6
Continuous
 62
     7
370
    25
100
AcDbCircle
 10
-9.5796859197
 20
-4.4204153326
 30
0.0
 40
1.000000000000001
100
AcDbArc
 50
24.7703173731
 51
109.760188459
  0
ARC
  5
A4
330
1F
100
AcDbEntity
  8
0
  6
Continuous
 62
     7
370
    25
100
AcDbCircle
 10
-5.1706892808
 20
-18.2828874186
 30
0.0
 40
0.9999999999999973
100
AcDbArc
 50
160.4259857398
 51
254.2082591506
  0
ARC
  5
A5
330
1F
100
AcDbEntity
  8
0
  6
Continuous
 62
     7
370
    25
100
AcDbCircle
 10
9.3262380271
 20
16.5535882594
 30
0.0
 40
1.00000000000003
100
AcDbArc
 50
60.6032303882
 51
160.7919342804
  0
ARC
  5
A6
330
1F
100
AcDbEntity
  8
0
  6
Continuous
 62
     7
370
    25
100
AcDbCircle
 10
10.550376593
 20
0.002788905
 30
0.0
 40
0.9999999999999958
100
AcDbArc
 50
106.8393011643
 51
180.0151456663
  0
ARC
  5
A7
330
1F
100
AcDbEntity
  8
0
  6
Continuous
 62
     7
370
    25
100
AcDbCircle
 10
10.550376795
 20
-0.0018751035
 30
0.0
 40
1.000000000000027
100
AcDbArc
 50
179.9898169027
 51
253.2224044796
  0
ARC
  5
A8
330
1F
100
AcDbEntity
  8
0
  6
Continuous
 62
     7
370
    25
100
AcDbCircle
 10
9.3324697719
 20
-16.5500757689
 30
0.0
 40
1.000000000000012
100
AcDbArc
 50
198.8221483908
 51
299.4183414033
  0
ARC
  5
A9
330
1F
100
AcDbEntity
  8
0
  6
Continuous
 62
     7
370
    25
100
AcDbCircle
 10
-9.5797238631
 20
4.4203331029
 30
0.0
 40
1.000000000000002
100
AcDbArc
 50
250.2433135049
 51
335.230174439
  0
ARC
  5
AA
330
1F
100
AcDbEntity
  8
0
  6
Continuous
 62
     7
370
    25
100
AcDbCircle
 10
9.5797249773
 20
4.4203306882
 30
0.0
 40
1.000000000000004
100
AcDbArc
 50
204.7698111187
 51
289.7558378942
  0
ARC
  5
AB
330
1F
100
AcDbEntity
  8
0
  6
Continuous
 62
     7
370
    25
100
AcDbCircle
 10
5.1653005088
 20
18.2844105908
 30
0.0
 40
1.000000000000007
100
AcDbArc
 50
340.1177898983
 51
74.2251460362
  0
ARC
  5
AC
330
1F
100
AcDbEntity
  8
0
  6
Continuous
 62
     7
370
    25
100
AcDbCircle
 10
-5.1669246599
 20
18.2839516943
 30
0.0
 40
1.00000000000004
100
AcDbArc
 50
105.7799434455
 51
199.8036755301
  0
ARC
  5
AD
330
1F
100
AcDbEntity
  8
0
  6
Continuous
 62
     7
370
    25
100
AcDbCircle
 10
0.0
 20
0.0
 30
0.0
 40
9.550376961659572
100
AcDbArc
 50
24.7698111187
 51
155.230174439
  0
ARC
  5
AE
330
1F
100
AcDbEntity
  8
0
  6
Continuous
 62
     7
370
    25
100
AcDbCircle
 10
0.0
 20
0.0
 30
0.0
 40
19.99999999999924
100
AcDbArc
 50
74.2251460362
 51
105.7799434455
  0
ARC
  5
AF
330
1F
100
AcDbEntity
  8
0
  6
Continuous
 62
     7
370
    25
100
AcDbCircle
 10
0.0
 20
0.0
 30
0.0
 40
19.99999999999918
100
AcDbArc
 50
299.4183414033
 51
60.6032303882
  0
ARC
  5
B0
330
1F
100
AcDbEntity
  8
0
  6
Continuous
 62
     7
370
    25
100
AcDbCircle
 10
0.0
 20
0.0
 30
0.0
 40
9.55037696165958
100
AcDbArc
 50
204.7703173731
 51
335.2296826269
  0
ARC
  5
B1
330
1F
100
AcDbEntity
  8
0
  6
Continuous
 62
     7
370
    25
100
AcDbCircle
 10
0.0
 20
0.0
 30
0.0
 40
19.99999999999914
100
AcDbArc
 50
254.2082591506
 51
285.7917408494
  0
ARC
  5
B2
330
1F
100
AcDbEntity
  8
0
  6
Continuous
 62
     7
370
    25
100
AcDbCircle
 10
0.0
 20
0.0
 30
0.0
 40
19.99999999999916
100
AcDbArc
 50
119.4030436896
 51
240.5816585967
  0
MTEXT
  5
B4
330
1F
100
AcDbEntity
  8
0
  6
Continuous
 62
     7
100
AcDbMText
 10
-27.0
 20
-28.0195663917
 30
0.0
 40
4.83362
 41
0.0
 71
     1
 72
     1
  1
SOLIDWORKS Educational Product.
  7
SLDTEXTSTYLE0
 73
     1
 44
1.0
  0
MTEXT
  5
B5
330
1F
100
AcDbEntity
  8
0
  6
Continuous
 62
     7
100
AcDbMText
 10
-27.0
 20
-35.2699963917
 30
0.0
 40
4.83362
 41
0.0
 71
     1
 72
     1
  1
For Instructional Use Only.
  7
SLDTEXTSTYLE0
 73
     1
 44
1.0
  0
ENDSEC
  0
SECTION
  2
OBJECTS
  0
DICTIONARY
  5
C
330
0
100
AcDbDictionary
281
     1
  3
ACAD_GROUP
350
D
  3
ACAD_LAYOUT
350
1A
  3
ACAD_MLINESTYLE
350
17
  3
ACAD_PLOTSETTINGS
350
19
  3
ACAD_PLOTSTYLENAME
350
E
  3
ACAD_SCALELIST
350
47
  3
DWGPROPS
350
B6
  0
DICTIONARY
  5
D
102
{ACAD_REACTORS
330
C
102
}
330
C
100
AcDbDictionary
281
     1
  0
DICTIONARY
  5
1A
102
{ACAD_REACTORS
330
C
102
}
330
C
100
AcDbDictionary
281
     1
  3
Layout1
350
1E
  3
Layout2
350
26
  3
Model
350
22
  0
DICTIONARY
  5
17
102
{ACAD_REACTORS
330
C
102
}
330
C
100
AcDbDictionary
281
     1
  3
Standard
350
18
  0
DICTIONARY
  5
19
102
{ACAD_REACTORS
330
C
102
}
330
C
100
AcDbDictionary
281
     1
  0
ACDBDICTIONARYWDFLT
  5
E
102
{ACAD_REACTORS
330
C
102
}
330
C
100
AcDbDictionary
281
     1
  3
Normal
350
F
100
AcDbDictionaryWithDefault
340
F
  0
DICTIONARY
  5
47
102
{ACAD_REACTORS
330
C
102
}
330
C
100
AcDbDictionary
281
     1
  3
A0
350
48
  3
A1
350
49
  3
A2
350
4A
  3
A3
350
4B
  3
A4
350
4C
  3
A5
350
4D
  3
A6
350
4E
  3
A7
350
4F
  3
A8
350
50
  3
A9
350
51
  3
B0
350
52
  3
B1
350
53
  3
B2
350
54
  3
B3
350
55
  3
B4
350
56
  3
B5
350
57
  3
B6
350
58
  3
B7
350
59
  3
B8
350
5A
  3
B9
350
5B
  3
C0
350
5C
  3
C1
350
5D
  3
C2
350
5E
  3
C3
350
5F
  3
C4
350
60
  3
C5
350
61
  3
C6
350
62
  3
C7
350
63
  3
C8
350
64
  3
C9
350
65
  3
D0
350
66
  3
D1
350
67
  3
D2
350
68
  0
XRECORD
  5
B6
102
{ACAD_REACTORS
330
C
102
}
330
C
100
AcDbXrecord
280
     1
  1
DWGPROPS COOKIE
  2

  3

  4

  6

  7

  8
gal65
  9

300
=
301
=
302
=
303
=
304
=
305
=
306
=
307
=
308
=
309
=
 40
0.0
 41
2460119.068026875
 42
2460119.068125023
  1

 90
        0
  0
LAYOUT
  5
1E
102
{ACAD_REACTORS
330
1A
102
}
330
1A
100
AcDbPlotSettings
  1

  2
none_device
  4

  6

 40
0.0
 41
0.0
 42
0.0
 43
0.0
 44
0.0
 45
0.0
 46
0.0
 47
0.0
 48
0.0
 49
0.0
140
0.0
141
0.0
142
1.0
143
1.0
 70
   688
 72
     1
 73
     0
 74
     5
  7

 75
    16
147
1.0
148
0.0
149
0.0
100
AcDbLayout
  1
Layout1
 70
     1
 71
     1
 10
0.0
 20
0.0
 11
420.0
 21
297.0
 12
0.0
 22
0.0
 32
0.0
 14
1.0000000000E+20
 24
1.0000000000E+20
 34
1.0000000000E+20
 15
-1.0000000000E+20
 25
-1.0000000000E+20
 35
-1.0000000000E+20
146
0.0
 13
0.0
 23
0.0
 33
0.0
 16
1.0
 26
0.0
 36
0.0
 17
0.0
 27
1.0
 37
0.0
 76
     0
330
1B
  0
LAYOUT
  5
26
102
{ACAD_REACTORS
330
1A
102
}
330
1A
100
AcDbPlotSettings
  1

  2
none_device
  4

  6

 40
0.0
 41
0.0
 42
0.0
 43
0.0
 44
0.0
 45
0.0
 46
0.0
 47
0.0
 48
0.0
 49
0.0
140
0.0
141
0.0
142
1.0
143
1.0
 70
   688
 72
     1
 73
     0
 74
     5
  7

 75
    16
147
1.0
148
0.0
149
0.0
100
AcDbLayout
  1
Layout2
 70
     1
 71
     2
 10
0.0
 20
0.0
 11
0.0
 21
0.0
 12
0.0
 22
0.0
 32
0.0
 14
0.0
 24
0.0
 34
0.0
 15
0.0
 25
0.0
 35
0.0
146
0.0
 13
0.0
 23
0.0
 33
0.0
 16
1.0
 26
0.0
 36
0.0
 17
0.0
 27
1.0
 37
0.0
 76
     0
330
23
  0
LAYOUT
  5
22
102
{ACAD_REACTORS
330
1A
102
}
330
1A
100
AcDbPlotSettings
  1

  2
none_device
  4
ANSI_A_(11.00_x_8.50_Inches)
  6

 40
6.35
 41
19.05
 42
6.35000508
 43
19.05000254
 44
279.4
 45
215.9
 46
133.34999746
 47
88.89999873
 48
0.0
 49
0.0
140
0.0
141
0.0
142
0.1558333333
143
1.0
 70
  1696
 72
     0
 73
     0
 74
     0
  7

 75
     0
147
0.0179189148
148
-1300.4909072572
149
0.0
100
AcDbLayout
  1
Model
 70
     1
 71
     0
 10
0.0
 20
0.0
 11
420.0
 21
297.0
 12
0.0
 22
0.0
 32
0.0
 14
-27.0
 24
-27.0
 34
0.0
 15
27.0
 25
27.0
 35
0.0
146
0.0
 13
0.0
 23
0.0
 33
0.0
 16
1.0
 26
0.0
 36
0.0
 17
0.0
 27
1.0
 37
0.0
 76
     0
330
1F
331
29
  0
MLINESTYLE
  5
18
102
{ACAD_REACTORS
330
17
102
}
330
17
100
AcDbMlineStyle
  2
Standard
 70
     0
  3

 62
   256
 51
90.0
 52
90.0
 71
     2
 49
0.5
 62
   256
  6
BYLAYER
 49
-0.5
 62
   256
  6
BYLAYER
  0
ACDBPLACEHOLDER
  5
F
102
{ACAD_REACTORS
330
E
102
}
330
E
  0
SCALE
  5
48
102
{ACAD_REACTORS
330
47
102
}
330
47
100
AcDbScale
 70
     0
300
1:1
140
1.0
141
1.0
290
     1
  0
SCALE
  5
49
102
{ACAD_REACTORS
330
47
102
}
330
47
100
AcDbScale
 70
     0
300
1:2
140
1.0
141
2.0
290
     0
  0
SCALE
  5
4A
102
{ACAD_REACTORS
330
47
102
}
330
47
100
AcDbScale
 70
     0
300
1:4
140
1.0
141
4.0
290
     0
  0
SCALE
  5
4B
102
{ACAD_REACTORS
330
47
102
}
330
47
100
AcDbScale
 70
     0
300
1:5
140
1.0
141
5.0
290
     0
  0
SCALE
  5
4C
102
{ACAD_REACTORS
330
47
102
}
330
47
100
AcDbScale
 70
     0
300
1:8
140
1.0
141
8.0
290
     0
  0
SCALE
  5
4D
102
{ACAD_REACTORS
330
47
102
}
330
47
100
AcDbScale
 70
     0
300
1:10
140
1.0
141
10.0
290
     0
  0
SCALE
  5
4E
102
{ACAD_REACTORS
330
47
102
}
330
47
100
AcDbScale
 70
     0
300
1:16
140
1.0
141
16.0
290
     0
  0
SCALE
  5
4F
102
{ACAD_REACTORS
330
47
102
}
330
47
100
AcDbScale
 70
     0
300
1:20
140
1.0
141
20.0
290
     0
  0
SCALE
  5
50
102
{ACAD_REACTORS
330
47
102
}
330
47
100
AcDbScale
 70
     0
300
1:30
140
1.0
141
30.0
290
     0
  0
SCALE
  5
51
102
{ACAD_REACTORS
330
47
102
}
330
47
100
AcDbScale
 70
     0
300
1:40
140
1.0
141
40.0
290
     0
  0
SCALE
  5
52
102
{ACAD_REACTORS
330
47
102
}
330
47
100
AcDbScale
 70
     0
300
1:50
140
1.0
141
50.0
290
     0
  0
SCALE
  5
53
102
{ACAD_REACTORS
330
47
102
}
330
47
100
AcDbScale
 70
     0
300
1:100
140
1.0
141
100.0
290
     0
  0
SCALE
  5
54
102
{ACAD_REACTORS
330
47
102
}
330
47
100
AcDbScale
 70
     0
300
2:1
140
2.0
141
1.0
290
     0
  0
SCALE
  5
55
102
{ACAD_REACTORS
330
47
102
}
330
47
100
AcDbScale
 70
     0
300
4:1
140
4.0
141
1.0
290
     0
  0
SCALE
  5
56
102
{ACAD_REACTORS
330
47
102
}
330
47
100
AcDbScale
 70
     0
300
8:1
140
8.0
141
1.0
290
     0
  0
SCALE
  5
57
102
{ACAD_REACTORS
330
47
102
}
330
47
100
AcDbScale
 70
     0
300
10:1
140
10.0
141
1.0
290
     0
  0
SCALE
  5
58
102
{ACAD_REACTORS
330
47
102
}
330
47
100
AcDbScale
 70
     0
300
100:1
140
100.0
141
1.0
290
     0
  0
SCALE
  5
59
102
{ACAD_REACTORS
330
47
102
}
330
47
100
AcDbScale
 70
     0
300
1/128" = 1'-0"
140
0.0078125
141
12.0
290
     0
  0
SCALE
  5
5A
102
{ACAD_REACTORS
330
47
102
}
330
47
100
AcDbScale
 70
     0
300
1/64" = 1'-0"
140
0.015625
141
12.0
290
     0
  0
SCALE
  5
5B
102
{ACAD_REACTORS
330
47
102
}
330
47
100
AcDbScale
 70
     0
300
1/32" = 1'-0"
140
0.03125
141
12.0
290
     0
  0
SCALE
  5
5C
102
{ACAD_REACTORS
330
47
102
}
330
47
100
AcDbScale
 70
     0
300
1/16" = 1'-0"
140
0.0625
141
12.0
290
     0
  0
SCALE
  5
5D
102
{ACAD_REACTORS
330
47
102
}
330
47
100
AcDbScale
 70
     0
300
3/32" = 1'-0"
140
0.09375
141
12.0
290
     0
  0
SCALE
  5
5E
102
{ACAD_REACTORS
330
47
102
}
330
47
100
AcDbScale
 70
     0
300
1/8" = 1'-0"
140
0.125
141
12.0
290
     0
  0
SCALE
  5
5F
102
{ACAD_REACTORS
330
47
102
}
330
47
100
AcDbScale
 70
     0
300
3/16" = 1'-0"
140
0.1875
141
12.0
290
     0
  0
SCALE
  5
60
102
{ACAD_REACTORS
330
47
102
}
330
47
100
AcDbScale
 70
     0
300
1/4" = 1'-0"
140
0.25
141
12.0
290
     0
  0
SCALE
  5
61
102
{ACAD_REACTORS
330
47
102
}
330
47
100
AcDbScale
 70
     0
300
3/8" = 1'-0"
140
0.375
141
12.0
290
     0
  0
SCALE
  5
62
102
{ACAD_REACTORS
330
47
102
}
330
47
100
AcDbScale
 70
     0
300
1/2" = 1'-0"
140
0.5
141
12.0
290
     0
  0
SCALE
  5
63
102
{ACAD_REACTORS
330
47
102
}
330
47
100
AcDbScale
 70
     0
300
3/4" = 1'-0"
140
0.75
141
12.0
290
     0
  0
SCALE
  5
64
102
{ACAD_REACTORS
330
47
102
}
330
47
100
AcDbScale
 70
     0
300
1" = 1'-0"
140
1.0
141
12.0
290
     0
  0
SCALE
  5
65
102
{ACAD_REACTORS
330
47
102
}
330
47
100
AcDbScale
 70
     0
300
1-1/2" = 1'-0"
140
1.5
141
12.0
290
     0
  0
SCALE
  5
66
102
{ACAD_REACTORS
330
47
102
}
330
47
100
AcDbScale
 70
     0
300
3" = 1'-0"
140
3.0
141
12.0
290
     0
  0
SCALE
  5
67
102
{ACAD_REACTORS
330
47
102
}
330
47
100
AcDbScale
 70
     0
300
6" = 1'-0"
140
6.0
141
12.0
290
     0
  0
SCALE
  5
68
102
{ACAD_REACTORS
330
47
102
}
330
47
100
AcDbScale
 70
     0
300
1'-0" = 1'-0"
140
12.0
141
12.0
290
     0
  0
ENDSEC
  0
EOF
