  0
SECTION
  2
HEADER
  9
$ACADVER
  1
AC1015
  9
$ACADMAINTVER
 70
     6
  9
$DWGCODEPAGE
  3
ANSI_1252
  9
$INSBASE
 10
0.0
 20
0.0
 30
0.0
  9
$EXTMIN
 10
-27.0
 20
-27.0
 30
0.0
  9
$EXTMAX
 10
27.0
 20
27.0
 30
0.0
  9
$LIMMIN
 10
0.0
 20
0.0
  9
$LIMMAX
 10
420.0
 20
297.0
  9
$ORTHOMODE
 70
     0
  9
$REGENMODE
 70
     1
  9
$FILLMODE
 70
     1
  9
$QTEXTMODE
 70
     0
  9
$MIRRTEXT
 70
     1
  9
$LTSCALE
 40
1.0
  9
$ATTMODE
 70
     1
  9
$TEXTSIZE
 40
3.5
  9
$TRACEWID
 40
1.0
  9
$TEXTSTYLE
  7
Standard
  9
$CLAYER
  8
0
  9
$CELTYPE
  6
ByLayer
  9
$CECOLOR
 62
   256
  9
$CELTSCALE
 40
1.0
  9
$DISPSILH
 70
     0
  9
$DIMSCALE
 40
1.0
  9
$DIMASZ
 40
3.302
  9
$DIMEXO
 40
0.0
  9
$DIMDLI
 40
3.75
  9
$DIMRND
 40
0.0
  9
$DIMDLE
 40
0.0
  9
$DIMEXE
 40
1.0
  9
$DIMTP
 40
0.0
  9
$DIMTM
 40
0.0
  9
$DIMTXT
 40
3.5
  9
$DIMCEN
 40
2.5
  9
$DIMTSZ
 40
0.0
  9
$DIMTOL
 70
     0
  9
$DIMLIM
 70
     0
  9
$DIMTIH
 70
     1
  9
$DIMTOH
 70
     1
  9
$DIMSE1
 70
     0
  9
$DIMSE2
 70
     0
  9
$DIMTAD
 70
     1
  9
$DIMZIN
 70
     1
  9
$DIMBLK
  1

  9
$DIMASO
 70
     1
  9
$DIMSHO
 70
     1
  9
$DIMPOST
  1

  9
$DIMAPOST
  1

  9
$DIMALT
 70
     0
  9
$DIMALTD
 70
     3
  9
$DIMALTF
 40
0.0393700787
  9
$DIMLFAC
 40
1.0
  9
$DIMTOFL
 70
     1
  9
$DIMTVP
 40
0.0
  9
$DIMTIX
 70
     0
  9
$DIMSOXD
 70
     0
  9
$DIMSAH
 70
     0
  9
$DIMBLK1
  1

  9
$DIMBLK2
  1

  9
$DIMSTYLE
  2
ISO-25
  9
$DIMCLRD
 70
     0
  9
$DIMCLRE
 70
     0
  9
$DIMCLRT
 70
     0
  9
$DIMTFAC
 40
1.0
  9
$DIMGAP
 40
1.524
  9
$DIMJUST
 70
     0
  9
$DIMSD1
 70
     0
  9
$DIMSD2
 70
     0
  9
$DIMTOLJ
 70
     0
  9
$DIMTZIN
 70
     1
  9
$DIMALTZ
 70
     0
  9
$DIMALTTZ
 70
     0
  9
$DIMUPT
 70
     0
  9
$DIMDEC
 70
     2
  9
$DIMTDEC
 70
     2
  9
$DIMALTU
 70
     2
  9
$DIMALTTD
 70
     3
  9
$DIMTXSTY
  7
Standard
  9
$DIMAUNIT
 70
     0
  9
$DIMADEC
 70
     2
  9
$DIMALTRND
 40
0.0
  9
$DIMAZIN
 70
     0
  9
$DIMDSEP
 70
    44
  9
$DIMATFIT
 70
     3
  9
$DIMFRAC
 70
     0
  9
$DIMLDRBLK
  1

  9
$DIMLUNIT
 70
     2
  9
$DIMLWD
 70
    -2
  9
$DIMLWE
 70
    -2
  9
$DIMTMOVE
 70
     0
  9
$LUNITS
 70
     2
  9
$LUPREC
 70
     2
  9
$SKETCHINC
 40
1.0
  9
$FILLETRAD
 40
0.0
  9
$AUNITS
 70
     0
  9
$AUPREC
 70
     2
  9
$MENU
  1
.
  9
$ELEVATION
 40
0.0
  9
$PELEVATION
 40
0.0
  9
$THICKNESS
 40
0.0
  9
$LIMCHECK
 70
     0
  9
$CHAMFERA
 40
0.0
  9
$CHAMFERB
 40
0.0
  9
$CHAMFERC
 40
0.0
  9
$CHAMFERD
 40
0.0
  9
$SKPOLY
 70
     0
  9
$TDCREATE
 40
2460164.769827211
  9
$TDUCREATE
 40
2460164.269827211
  9
$TDUPDATE
 40
2460164.76991066
  9
$TDUUPDATE
 40
2460164.26991066
  9
$TDINDWG
 40
0.0000000116
  9
$TDUSRTIMER
 40
0.0000000116
  9
$USRTIMER
 70
     1
  9
$ANGBASE
 50
0.0
  9
$ANGDIR
 70
     0
  9
$PDMODE
 70
     0
  9
$PDSIZE
 40
-1.0
  9
$PLINEWID
 40
0.0
  9
$SPLFRAME
 70
     0
  9
$SPLINETYPE
 70
     6
  9
$SPLINESEGS
 70
     8
  9
$HANDSEED
  5
8B
  9
$SURFTAB1
 70
     6
  9
$SURFTAB2
 70
     6
  9
$SURFTYPE
 70
     6
  9
$SURFU
 70
     6
  9
$SURFV
 70
     6
  9
$UCSBASE
  2

  9
$UCSNAME
  2

  9
$UCSORG
 10
0.0
 20
0.0
 30
0.0
  9
$UCSXDIR
 10
1.0
 20
0.0
 30
0.0
  9
$UCSYDIR
 10
0.0
 20
1.0
 30
0.0
  9
$UCSORTHOREF
  2

  9
$UCSORTHOVIEW
 70
     0
  9
$UCSORGTOP
 10
0.0
 20
0.0
 30
0.0
  9
$UCSORGBOTTOM
 10
0.0
 20
0.0
 30
0.0
  9
$UCSORGLEFT
 10
0.0
 20
0.0
 30
0.0
  9
$UCSORGRIGHT
 10
0.0
 20
0.0
 30
0.0
  9
$UCSORGFRONT
 10
0.0
 20
0.0
 30
0.0
  9
$UCSORGBACK
 10
0.0
 20
0.0
 30
0.0
  9
$PUCSBASE
  2

  9
$PUCSNAME
  2

  9
$PUCSORG
 10
0.0
 20
0.0
 30
0.0
  9
$PUCSXDIR
 10
1.0
 20
0.0
 30
0.0
  9
$PUCSYDIR
 10
0.0
 20
1.0
 30
0.0
  9
$PUCSORTHOREF
  2

  9
$PUCSORTHOVIEW
 70
     0
  9
$PUCSORGTOP
 10
0.0
 20
0.0
 30
0.0
  9
$PUCSORGBOTTOM
 10
0.0
 20
0.0
 30
0.0
  9
$PUCSORGLEFT
 10
0.0
 20
0.0
 30
0.0
  9
$PUCSORGRIGHT
 10
0.0
 20
0.0
 30
0.0
  9
$PUCSORGFRONT
 10
0.0
 20
0.0
 30
0.0
  9
$PUCSORGBACK
 10
0.0
 20
0.0
 30
0.0
  9
$USERI1
 70
     0
  9
$USERI2
 70
     0
  9
$USERI3
 70
     0
  9
$USERI4
 70
     0
  9
$USERI5
 70
     0
  9
$USERR1
 40
0.0
  9
$USERR2
 40
0.0
  9
$USERR3
 40
0.0
  9
$USERR4
 40
0.0
  9
$USERR5
 40
0.0
  9
$WORLDVIEW
 70
     1
  9
$SHADEDGE
 70
     3
  9
$SHADEDIF
 70
    70
  9
$TILEMODE
 70
     1
  9
$MAXACTVP
 70
    64
  9
$PINSBASE
 10
0.0
 20
0.0
 30
0.0
  9
$PLIMCHECK
 70
     0
  9
$PEXTMIN
 10
1.0000000000E+20
 20
1.0000000000E+20
 30
1.0000000000E+20
  9
$PEXTMAX
 10
-1.0000000000E+20
 20
-1.0000000000E+20
 30
-1.0000000000E+20
  9
$PLIMMIN
 10
0.0
 20
0.0
  9
$PLIMMAX
 10
420.0
 20
297.0
  9
$UNITMODE
 70
     0
  9
$VISRETAIN
 70
     1
  9
$PLINEGEN
 70
     0
  9
$PSLTSCALE
 70
     1
  9
$TREEDEPTH
 70
  3020
  9
$CMLSTYLE
  2
Standard
  9
$CMLJUST
 70
     0
  9
$CMLSCALE
 40
20.0
  9
$PROXYGRAPHICS
 70
     1
  9
$MEASUREMENT
 70
     1
  9
$CELWEIGHT
370
    -1
  9
$ENDCAPS
280
     0
  9
$JOINSTYLE
280
     0
  9
$LWDISPLAY
290
     1
  9
$INSUNITS
 70
     4
  9
$HYPERLINKBASE
  1

  9
$STYLESHEET
  1

  9
$XEDIT
290
     1
  9
$CEPSNTYPE
380
     0
  9
$PSTYLEMODE
290
     1
  9
$FINGERPRINTGUID
  2
{18ed8862-b6cc-45e0-8d48-005509997b99}
  9
$VERSIONGUID
  2
{FAEB1C32-E019-11D5-929B-00C0DF256EC4}
  9
$EXTNAMES
290
     1
  9
$PSVPSCALE
 40
0.0
  9
$OLESTARTUP
290
     0
  0
ENDSEC
  0
SECTION
  2
CLASSES
  0
CLASS
  1
ACDBDICTIONARYWDFLT
  2
AcDbDictionaryWithDefault
  3
ObjectDBX Classes
 90
        0
280
     0
281
     0
  0
CLASS
  1
VISUALSTYLE
  2
AcDbVisualStyle
  3
ObjectDBX Classes
 90
     4095
280
     0
281
     0
  0
CLASS
  1
MATERIAL
  2
AcDbMaterial
  3
ObjectDBX Classes
 90
     1153
280
     0
281
     0
  0
CLASS
  1
SCALE
  2
AcDbScale
  3
ObjectDBX Classes
 90
     1153
280
     0
281
     0
  0
CLASS
  1
TABLESTYLE
  2
AcDbTableStyle
  3
ObjectDBX Classes
 90
     4095
280
     0
281
     0
  0
CLASS
  1
MLEADERSTYLE
  2
AcDbMLeaderStyle
  3
ACDB_MLEADERSTYLE_CLASS
 90
     4095
280
     0
281
     0
  0
CLASS
  1
SUN
  2
AcDbSun
  3
SCENEOE
 90
     1153
280
     0
281
     0
  0
CLASS
  1
ACDBPLACEHOLDER
  2
AcDbPlaceHolder
  3
ObjectDBX Classes
 90
        0
280
     0
281
     0
  0
CLASS
  1
LAYOUT
  2
AcDbLayout
  3
ObjectDBX Classes
 90
        0
280
     0
281
     0
  0
ENDSEC
  0
SECTION
  2
TABLES
  0
TABLE
  2
VPORT
  5
8
330
0
100
AcDbSymbolTable
 70
     1
  0
VPORT
  5
29
330
8
100
AcDbSymbolTableRecord
100
AcDbViewportTableRecord
  2
*Active
 70
     0
 10
0.0
 20
0.0
 11
1.0
 21
1.0
 12
0.0
 22
0.0
 13
0.0
 23
0.0
 14
10.0
 24
10.0
 15
10.0
 25
10.0
 16
0.0
 26
0.0
 36
1.0
 17
0.0
 27
0.0
 37
0.0
 40
55.08
 41
1.0
 42
50.0
 43
0.0
 44
0.0
 50
0.0
 51
0.0
 71
     0
 72
   100
 73
     1
 74
     3
 75
     0
 76
     0
 77
     0
 78
     0
281
     0
 65
     1
110
0.0
120
0.0
130
0.0
111
1.0
121
0.0
131
0.0
112
0.0
122
1.0
132
0.0
 79
     0
146
0.0
  0
ENDTAB
  0
TABLE
  2
LTYPE
  5
5
330
0
100
AcDbSymbolTable
 70
     6
  0
LTYPE
  5
14
330
5
100
AcDbSymbolTableRecord
100
AcDbLinetypeTableRecord
  2
ByBlock
 70
     0
  3

 72
    65
 73
     0
 40
0.0
  0
LTYPE
  5
15
330
5
100
AcDbSymbolTableRecord
100
AcDbLinetypeTableRecord
  2
ByLayer
 70
     0
  3

 72
    65
 73
     0
 40
0.0
  0
LTYPE
  5
16
330
5
100
AcDbSymbolTableRecord
100
AcDbLinetypeTableRecord
  2
Continuous
 70
     0
  3
Solid line
 72
    65
 73
     0
 40
0.0
  0
LTYPE
  5
5E
330
5
100
AcDbSymbolTableRecord
100
AcDbLinetypeTableRecord
  2
HIDDEN
 70
     0
  3
Hidden __ __ __ __ __ __ __ __ __ __ __ __ __ __
 72
    65
 73
     2
 40
1.905
 49
1.27
 74
     0
 49
-0.635
 74
     0
  0
LTYPE
  5
5F
330
5
100
AcDbSymbolTableRecord
100
AcDbLinetypeTableRecord
  2
PHANTOM
 70
     0
  3
Phantom ______  __  __  ______  __  __  ______
 72
    65
 73
     6
 40
12.7
 49
6.35
 74
     0
 49
-1.27
 74
     0
 49
1.27
 74
     0
 49
-1.27
 74
     0
 49
1.27
 74
     0
 49
-1.27
 74
     0
  0
LTYPE
  5
60
330
5
100
AcDbSymbolTableRecord
100
AcDbLinetypeTableRecord
  2
CENTER
 70
     0
  3
Center ____ _ ____ _ ____ _ ____ _ ____ _ ____
 72
    65
 73
     4
 40
10.16
 49
6.35
 74
     0
 49
-1.27
 74
     0
 49
1.27
 74
     0
 49
-1.27
 74
     0
  0
LTYPE
  5
61
330
5
100
AcDbSymbolTableRecord
100
AcDbLinetypeTableRecord
  2
CENTERX2
 70
     0
  3
Center (2x) ________  __  ________  __  _____
 72
    65
 73
     4
 40
20.32
 49
12.7
 74
     0
 49
-2.54
 74
     0
 49
2.54
 74
     0
 49
-2.54
 74
     0
  0
LTYPE
  5
62
330
5
100
AcDbSymbolTableRecord
100
AcDbLinetypeTableRecord
  2
DOT2
 70
     0
  3
Dot (.5x) ........................................
 72
    65
 73
     2
 40
0.635
 49
0.0
 74
     0
 49
-0.635
 74
     0
  0
ENDTAB
  0
TABLE
  2
LAYER
  5
2
330
0
100
AcDbSymbolTable
 70
     1
  0
LAYER
  5
10
330
2
100
AcDbSymbolTableRecord
100
AcDbLayerTableRecord
  2
0
 70
     0
 62
     7
  6
Continuous
370
    -3
390
F
  0
ENDTAB
  0
TABLE
  2
STYLE
  5
3
330
0
100
AcDbSymbolTable
 70
     2
  0
STYLE
  5
11
330
3
100
AcDbSymbolTableRecord
100
AcDbTextStyleTableRecord
  2
Standard
 70
     0
 40
0.0
 41
1.0
 50
0.0
 71
     0
 42
3.5
  3
txt
  4

  0
STYLE
  5
87
330
3
100
AcDbSymbolTableRecord
100
AcDbTextStyleTableRecord
  2
SLDTEXTSTYLE0
 70
     0
 40
0.0
 41
0.7
 50
0.0
 71
     0
 42
3.5
  3
TXT
  4

  0
ENDTAB
  0
TABLE
  2
VIEW
  5
6
330
0
100
AcDbSymbolTable
 70
     0
  0
ENDTAB
  0
TABLE
  2
UCS
  5
7
330
0
100
AcDbSymbolTable
 70
     0
  0
ENDTAB
  0
TABLE
  2
APPID
  5
9
330
0
100
AcDbSymbolTable
 70
     1
  0
APPID
  5
12
330
9
100
AcDbSymbolTableRecord
100
AcDbRegAppTableRecord
  2
ACAD
 70
     0
  0
ENDTAB
  0
TABLE
  2
DIMSTYLE
  5
A
330
0
100
AcDbSymbolTable
 70
     1
100
AcDbDimStyleTable
  0
DIMSTYLE
105
27
330
A
100
AcDbSymbolTableRecord
100
AcDbDimStyleTableRecord
  2
ISO-25
 70
     0
 41
2.5
 42
0.625
 43
3.75
 44
1.25
 73
     0
 74
     0
 77
     1
 78
     8
140
2.5
141
2.5
143
0.0393700787
147
0.625
171
     3
172
     1
178
     0
271
     2
272
     2
274
     3
278
    44
283
     0
284
     8
340
11
  0
ENDTAB
  0
TABLE
  2
BLOCK_RECORD
  5
1
330
0
100
AcDbSymbolTable
 70
     1
  0
BLOCK_RECORD
  5
1F
330
1
100
AcDbSymbolTableRecord
100
AcDbBlockTableRecord
  2
*Model_Space
340
22
  0
BLOCK_RECORD
  5
1B
330
1
100
AcDbSymbolTableRecord
100
AcDbBlockTableRecord
  2
*Paper_Space
340
1E
  0
BLOCK_RECORD
  5
23
330
1
100
AcDbSymbolTableRecord
100
AcDbBlockTableRecord
  2
*Paper_Space0
340
26
  0
ENDTAB
  0
ENDSEC
  0
SECTION
  2
BLOCKS
  0
BLOCK
  5
20
330
1F
100
AcDbEntity
  8
0
100
AcDbBlockBegin
  2
*Model_Space
 70
     0
 10
0.0
 20
0.0
 30
0.0
  3
*Model_Space
  1

  0
ENDBLK
  5
21
330
1F
100
AcDbEntity
  8
0
100
AcDbBlockEnd
  0
BLOCK
  5
1C
330
1B
100
AcDbEntity
 67
     1
  8
0
100
AcDbBlockBegin
  2
*Paper_Space
 70
     0
 10
0.0
 20
0.0
 30
0.0
  3
*Paper_Space
  1

  0
ENDBLK
  5
1D
330
1B
100
AcDbEntity
 67
     1
  8
0
100
AcDbBlockEnd
  0
BLOCK
  5
24
330
23
100
AcDbEntity
  8
0
100
AcDbBlockBegin
  2
*Paper_Space0
 70
     0
 10
0.0
 20
0.0
 30
0.0
  3
*Paper_Space0
  1

  0
ENDBLK
  5
25
330
23
100
AcDbEntity
  8
0
100
AcDbBlockEnd
  0
ENDSEC
  0
SECTION
  2
ENTITIES
  0
SPLINE
  5
63
330
1F
100
AcDbEntity
  8
0
  6
Continuous
 62
     7
370
    25
100
AcDbSpline
210
0.0
220
0.0
230
1.0
 70
     8
 71
     3
 72
    38
 73
    34
 74
     0
 42
0.00000001
 43
0.00000001
 40
0.0087847528780807
 40
0.0087847528780807
 40
0.0087847528780807
 40
0.0087847528780807
 40
0.010977730072185
 40
0.03125
 40
0.0625
 40
0.125
 40
0.1875
 40
0.25
 40
0.3125
 40
0.375
 40
0.4375
 40
0.5
 40
0.53125
 40
0.5625
 40
0.59375
 40
0.625
 40
0.65625
 40
0.6875
 40
0.75
 40
0.78125
 40
0.8125
 40
0.84375
 40
0.875
 40
0.90625
 40
0.921875
 40
0.9296875
 40
0.9375
 40
0.9453125
 40
0.953125
 40
0.96875
 40
0.984375
 40
0.9996447377388964
 40
0.9997154403567078
 40
0.9997154403567078
 40
0.9997154403567078
 40
0.9997154403567078
 10
-8.792955702782905
 20
-17.96346139577582
 30
0.0
 10
-8.789751676319467
 20
-17.95560528261833
 30
0.0
 10
-8.756493011176198
 20
-17.87391025382809
 30
0.0
 10
-8.674658322933645
 20
-17.66882759682904
 30
0.0
 10
-8.47314353022779
 20
-17.13920202380241
 30
0.0
 10
-8.181522342003488
 20
-16.28217245181171
 30
0.0
 10
-7.873324991801553
 20
-15.12688818187093
 30
0.0
 10
-7.687935235949482
 20
-13.98158090800522
 30
0.0
 10
-7.686485968376455
 20
-12.98918656912144
 30
0.0
 10
-7.881874012541017
 20
-12.34080081084882
 30
0.0
 10
-8.105008022386894
 20
-12.10213527177928
 30
0.0
 10
-8.426726620765342
 20
-11.93662341008044
 30
0.0
 10
-9.255330048743298
 20
-11.87405674629381
 30
0.0
 10
-10.06143708576089
 20
-11.84718227189926
 30
0.0
 10
-10.9799767315818
 20
-11.78132816729456
 30
0.0
 10
-12.03731108288878
 20
-11.54913145567379
 30
0.0
 10
-12.90084013384748
 20
-11.20067979775724
 30
0.0
 10
-14.05378257380973
 20
-10.68180553494065
 30
0.0
 10
-15.23076194175147
 20
-9.925378086392689
 30
0.0
 10
-16.12850307750015
 20
-8.662385101133685
 30
0.0
 10
-16.4333356487218
 20
-7.420441445013984
 30
0.0
 10
-16.36142635956221
 20
-6.2673897765662
 30
0.0
 10
-16.06850151677773
 20
-5.081799091897524
 30
0.0
 10
-15.59633932418155
 20
-4.135388040434843
 30
0.0
 10
-15.10607527314843
 20
-3.536707786746619
 30
0.0
 10
-14.77441465382701
 20
-3.22840839201984
 30
0.0
 10
-14.48808788748931
 20
-3.01340339525939
 30
0.0
 10
-14.21405414871248
 20
-2.848285897397379
 30
0.0
 10
-13.84004719482376
 20
-2.635954373457374
 30
0.0
 10
-12.93232332920471
 20
-2.101933051260864
 30
0.0
 10
-11.38294930006126
 20
-1.322801643443917
 30
0.0
 10
-10.15458996092565
 20
-0.9016937889176229
 30
0.0
 10
-9.522133979012628
 20
-0.7713468529963675
 30
0.0
 10
-9.519212073473573
 20
-0.7707465045026695
 30
0.0
  0
CIRCLE
  5
65
330
1F
100
AcDbEntity
  8
0
  6
Continuous
 62
     7
370
    25
100
AcDbCircle
 10
-23.5
 20
0.0
 30
0.0
 40
1.249999999999996
  0
CIRCLE
  5
66
330
1F
100
AcDbEntity
  8
0
  6
Continuous
 62
     7
370
    25
100
AcDbCircle
 10
0.0
 20
0.0
 30
0.0
 40
27.0
  0
CIRCLE
  5
67
330
1F
100
AcDbEntity
  8
0
  6
Continuous
 62
     7
370
    25
100
AcDbCircle
 10
0.0
 20
0.0
 30
0.0
 40
4.0
  0
CIRCLE
  5
68
330
1F
100
AcDbEntity
  8
0
  6
Continuous
 62
     7
370
    25
100
AcDbCircle
 10
0.0
 20
7.0
 30
0.0
 40
1.000000000000001
  0
CIRCLE
  5
69
330
1F
100
AcDbEntity
  8
0
  6
Continuous
 62
     7
370
    25
100
AcDbCircle
 10
7.0
 20
0.0
 30
0.0
 40
0.9999999999999973
  0
CIRCLE
  5
6A
330
1F
100
AcDbEntity
  8
0
  6
Continuous
 62
     7
370
    25
100
AcDbCircle
 10
0.0
 20
-7.0
 30
0.0
 40
1.0
  0
CIRCLE
  5
6B
330
1F
100
AcDbEntity
  8
0
  6
Continuous
 62
     7
370
    25
100
AcDbCircle
 10
-7.0
 20
0.0
 30
0.0
 40
0.9999999999999991
  0
CIRCLE
  5
6C
330
1F
100
AcDbEntity
  8
0
  6
Continuous
 62
     7
370
    25
100
AcDbCircle
 10
23.5
 20
0.0
 30
0.0
 40
1.25
  0
CIRCLE
  5
6D
330
1F
100
AcDbEntity
  8
0
  6
Continuous
 62
     7
370
    25
100
AcDbCircle
 10
-11.75
 20
-20.3515969889
 30
0.0
 40
1.250000000000005
  0
CIRCLE
  5
6E
330
1F
100
AcDbEntity
  8
0
  6
Continuous
 62
     7
370
    25
100
AcDbCircle
 10
-11.75
 20
20.3515969889
 30
0.0
 40
1.249999999999993
  0
CIRCLE
  5
6F
330
1F
100
AcDbEntity
  8
0
  6
Continuous
 62
     7
370
    25
100
AcDbCircle
 10
11.75
 20
-20.3515969889
 30
0.0
 40
1.250000000000002
  0
CIRCLE
  5
70
330
1F
100
AcDbEntity
  8
0
  6
Continuous
 62
     7
370
    25
100
AcDbCircle
 10
11.75
 20
20.3515969889
 30
0.0
 40
1.250000000000009
  0
SPLINE
  5
71
330
1F
100
AcDbEntity
  8
0
  6
Continuous
 62
     7
370
    25
100
AcDbSpline
210
0.0
220
0.0
230
1.0
 70
     8
 71
     3
 72
    37
 73
    33
 74
     0
 42
0.00000001
 43
0.00000001
 40
0.0
 40
0.0
 40
0.0
 40
0.0
 40
0.03125
 40
0.0625
 40
0.125
 40
0.1875
 40
0.25
 40
0.3125
 40
0.375
 40
0.4375
 40
0.5
 40
0.53125
 40
0.5625
 40
0.59375
 40
0.625
 40
0.65625
 40
0.6875
 40
0.75
 40
0.78125
 40
0.8125
 40
0.84375
 40
0.875
 40
0.90625
 40
0.921875
 40
0.9296875
 40
0.9375
 40
0.9453125
 40
0.953125
 40
0.96875
 40
0.984375
 40
0.999643470368944
 40
0.9997147762951551
 40
0.9997147762951551
 40
0.9997147762951551
 40
0.9997147762951551
 10
8.793318818383645
 20
17.96321837874693
 30
0.0
 10
8.743197292611836
 20
17.84221431146178
 30
0.0
 10
8.651505867600747
 20
17.61536407414637
 30
0.0
 10
8.428006233856282
 20
17.02884059980776
 30
0.0
 10
8.138008466660924
 20
16.17659585656382
 30
0.0
 10
7.838003210747768
 20
15.04339588338227
 30
0.0
 10
7.663538371769245
 20
13.93032333375342
 30
0.0
 10
7.672414938503185
 20
12.97475591147608
 30
0.0
 10
7.868409235647461
 20
12.35972107630312
 30
0.0
 10
8.094314145133138
 20
12.11914953675704
 30
0.0
 10
8.439806840439855
 20
11.94696550822291
 30
0.0
 10
9.26859818602469
 20
11.87748892538388
 30
0.0
 10
10.07108988857405
 20
11.84232900081249
 30
0.0
 10
10.98378748324795
 20
11.76830025628968
 30
0.0
 10
12.03090241973946
 20
11.53339768210708
 30
0.0
 10
12.89107731633562
 20
11.18803021378114
 30
0.0
 10
14.04372123805592
 20
10.67350727893169
 30
0.0
 10
15.22348096570564
 20
9.923979766940496
 30
0.0
 10
16.12672679905821
 20
8.662493730392736
 30
0.0
 10
16.43261209908711
 20
7.418147543143813
 30
0.0
 10
16.36023896503517
 20
6.265833201871472
 30
0.0
 10
16.06758486403851
 20
5.08034454623807
 30
0.0
 10
15.59541962055665
 20
4.133992664724605
 30
0.0
 10
15.10502471349176
 20
3.535339458062799
 30
0.0
 10
14.77327044957512
 20
3.227082766998046
 30
0.0
 10
14.48687195276439
 20
3.012125090638481
 30
0.0
 10
14.2128369211191
 20
2.84707412916745
 30
0.0
 10
13.8388648790665
 20
2.634823466282412
 30
0.0
 10
12.93147576572936
 20
2.101093191517653
 30
0.0
 10
11.38269965774467
 20
1.322441506396572
 30
0.0
 10
10.15453091183821
 20
0.9016063249708163
 30
0.0
 10
9.522158739930399
 20
0.7713515758621997
 30
0.0
 10
9.519212073473573
 20
0.7707465045026699
 30
0.0
  0
SPLINE
  5
72
330
1F
100
AcDbEntity
  8
0
  6
Continuous
 62
     7
370
    25
100
AcDbSpline
210
0.0
220
0.0
230
1.0
 70
     8
 71
     3
 72
    41
 73
    37
 74
     0
 42
0.00000001
 43
0.00000001
 40
0.0077667708820958
 40
0.0077667708820958
 40
0.0077667708820958
 40
0.0077667708820958
 40
0.0097029591676459
 40
0.03125
 40
0.0625
 40
0.125
 40
0.1875
 40
0.25
 40
0.3125
 40
0.375
 40
0.4375
 40
0.46875
 40
0.5
 40
0.53125
 40
0.5625
 40
0.59375
 40
0.625
 40
0.65625
 40
0.6875
 40
0.71875
 40
0.75
 40
0.78125
 40
0.8125
 40
0.84375
 40
0.875
 40
0.890625
 40
0.90625
 40
0.921875
 40
0.9296875
 40
0.9375
 40
0.9453125
 40
0.953125
 40
0.96875
 40
0.984375
 40
0.9921875
 40
1.0
 40
1.0
 40
1.0
 40
1.0
 10
6.482825593747038
 20
-18.92022467339522
 30
0.0
 10
6.479643079270505
 20
-18.91243462122464
 30
0.0
 10
6.440546177685706
 20
-18.81658337562181
 30
0.0
 10
6.346672927811039
 20
-18.58165211882422
 30
0.0
 10
6.118118263365679
 20
-17.98080810236997
 30
0.0
 10
5.788945543160499
 20
-17.01419795458627
 30
0.0
 10
5.428868328712118
 20
-15.66888337406663
 30
0.0
 10
5.191072918391204
 20
-14.23051065039405
 30
0.0
 10
5.174743858153434
 20
-12.76220860549167
 30
0.0
 10
5.52380765632209
 20
-11.28368263929903
 30
0.0
 10
6.409177328140667
 20
-10.16742468759199
 30
0.0
 10
7.453609957727712
 20
-9.625573420887424
 30
0.0
 10
8.349527016692235
 20
-9.4259511821506
 30
0.0
 10
9.16980523565212
 20
-9.37704305549461
 30
0.0
 10
9.947175883414802
 20
-9.351170470212471
 30
0.0
 10
10.67474073622965
 20
-9.289097943991372
 30
0.0
 10
11.2367169876515
 20
-9.169741100301108
 30
0.0
 10
11.93155520234968
 20
-8.897082405493382
 30
0.0
 10
12.63723167912091
 20
-8.577618744607145
 30
0.0
 10
13.21138493168571
 20
-8.23420594421211
 30
0.0
 10
13.61271729850936
 20
-7.883089355021395
 30
0.0
 10
13.81264746458163
 20
-7.570728835323127
 30
0.0
 10
13.89643360238085
 20
-7.282600510502292
 30
0.0
 10
13.87916538439152
 20
-6.642379877739676
 30
0.0
 10
13.73005171826643
 20
-6.060720657323823
 30
0.0
 10
13.55142898756369
 20
-5.654040983319902
 30
0.0
 10
13.39638715425728
 20
-5.397598774300575
 30
0.0
 10
13.26497482751748
 20
-5.239502142318038
 30
0.0
 10
13.160322976087
 20
-5.144344514270364
 30
0.0
 10
13.10161697857778
 20
-5.099234995157297
 30
0.0
 10
12.97935079295867
 20
-5.02282296342866
 30
0.0
 10
12.5777082176045
 20
-4.794184260964667
 30
0.0
 10
11.72447864499832
 20
-4.292467827087161
 30
0.0
 10
10.60082366961021
 20
-3.731233704566987
 30
0.0
 10
9.652287874766165
 20
-3.377819407895788
 30
0.0
 10
9.219303851948876
 20
-3.260663105257725
 30
0.0
 10
8.992854355138897
 20
-3.215279026935035
 30
0.0
  0
SPLINE
  5
73
330
1F
100
AcDbEntity
  8
0
  6
Continuous
 62
     7
370
    25
100
AcDbSpline
210
0.0
220
0.0
230
1.0
 70
     8
 71
     3
 72
    40
 73
    36
 74
     0
 42
0.00000001
 43
0.00000001
 40
0.0
 40
0.0
 40
0.0
 40
0.0
 40
0.03125
 40
0.0625
 40
0.125
 40
0.1875
 40
0.25
 40
0.3125
 40
0.375
 40
0.4375
 40
0.46875
 40
0.5
 40
0.53125
 40
0.5625
 40
0.59375
 40
0.625
 40
0.65625
 40
0.6875
 40
0.71875
 40
0.75
 40
0.78125
 40
0.8125
 40
0.84375
 40
0.875
 40
0.890625
 40
0.90625
 40
0.921875
 40
0.9296875
 40
0.9375
 40
0.9453125
 40
0.953125
 40
0.96875
 40
0.984375
 40
0.9921875
 40
1.0
 40
1.0
 40
1.0
 40
1.0
 10
6.483263470312862
 20
18.92007463375033
 30
0.0
 10
6.426969184015575
 20
18.7841682042873
 30
0.0
 10
6.323926395977677
 20
18.52924019102967
 30
0.0
 10
6.07323861829994
 20
17.87132876651503
 30
0.0
 10
5.744805976755054
 20
16.9071117062331
 30
0.0
 10
5.391475966284403
 20
15.57796626083063
 30
0.0
 10
5.1643975235733
 20
14.16192971384657
 30
0.0
 10
5.161437972610312
 20
12.71597790602866
 30
0.0
 10
5.530830466808765
 20
11.25629422746569
 30
0.0
 10
6.425185298631248
 20
10.16786115058937
 30
0.0
 10
7.457773191247097
 20
9.638640592122021
 30
0.0
 10
8.342471896783266
 20
9.437117849490273
 30
0.0
 10
9.157349955354452
 20
9.380525302793934
 30
0.0
 10
9.93184903794082
 20
9.3466959333989
 30
0.0
 10
10.65936892658263
 20
9.278355576281912
 30
0.0
 10
11.22845806708411
 20
9.154567490821602
 30
0.0
 10
11.92751846921861
 20
8.881074749179168
 30
0.0
 10
12.63577671507996
 20
8.563143177036423
 30
0.0
 10
13.2119700457639
 20
8.221868707821562
 30
0.0
 10
13.613558473892
 20
7.873391688056316
 30
0.0
 10
13.81175652408575
 20
7.565229995659836
 30
0.0
 10
13.89489991240683
 20
7.281280641239355
 30
0.0
 10
13.87764799587399
 20
6.639933014100865
 30
0.0
 10
13.72856693320779
 20
6.058675927216324
 30
0.0
 10
13.55008055861493
 20
5.652289851066076
 30
0.0
 10
13.39516241666906
 20
5.396116901471589
 30
0.0
 10
13.26385536478548
 20
5.238202934078419
 30
0.0
 10
13.15924302554774
 20
5.143126110797112
 30
0.0
 10
13.10053339540625
 20
5.098033712086801
 30
0.0
 10
12.97814267340012
 20
5.021581254982194
 30
0.0
 10
12.57639625884663
 20
4.792966806310383
 30
0.0
 10
11.72349618664337
 20
4.291557776687265
 30
0.0
 10
10.6003918572882
 20
3.730785638297954
 30
0.0
 10
9.652220864386472
 20
3.377684544437635
 30
0.0
 10
9.219264875730659
 20
3.260618656894049
 30
0.0
 10
8.99285435514824
 20
3.215279026936683
 30
0.0
  0
SPLINE
  5
75
330
1F
100
AcDbEntity
  8
0
  6
Continuous
 62
     7
370
    25
100
AcDbSpline
210
0.0
220
0.0
230
1.0
 70
     8
 71
     3
 72
    41
 73
    37
 74
     0
 42
0.00000001
 43
0.00000001
 40
0.0033012992878312
 40
0.0033012992878312
 40
0.0033012992878312
 40
0.0033012992878312
 40
0.0041266241097909
 40
0.03125
 40
0.0625
 40
0.125
 40
0.1875
 40
0.25
 40
0.3125
 40
0.375
 40
0.4375
 40
0.46875
 40
0.5
 40
0.53125
 40
0.5625
 40
0.59375
 40
0.625
 40
0.65625
 40
0.6875
 40
0.71875
 40
0.75
 40
0.78125
 40
0.8125
 40
0.84375
 40
0.875
 40
0.890625
 40
0.90625
 40
0.921875
 40
0.9296875
 40
0.9375
 40
0.9453125
 40
0.953125
 40
0.96875
 40
0.984375
 40
0.9921875
 40
1.0
 40
1.0
 40
1.0
 40
1.0
 10
-6.482730882085225
 20
18.92025712517233
 30
0.0
 10
-6.481357821024352
 20
18.91692402737915
 30
0.0
 10
-6.434399601861852
 20
18.80286146559092
 30
0.0
 10
-6.330701065994464
 20
18.54537734419057
 30
0.0
 10
-6.087016997140614
 20
17.90602961229215
 30
0.0
 10
-5.756543801798381
 20
16.93680987554651
 30
0.0
 10
-5.400327587492998
 20
15.60083385504829
 30
0.0
 10
-5.170127048242272
 20
14.17816176099909
 30
0.0
 10
-5.163909695702931
 20
12.72664985558298
 30
0.0
 10
-5.528940793729013
 20
11.26263150081938
 30
0.0
 10
-6.421625851472664
 20
10.16858268629191
 30
0.0
 10
-7.456414954146319
 20
9.637035593781237
 30
0.0
 10
-8.343102859975478
 20
9.435914774599135
 30
0.0
 10
-9.158963912134565
 20
9.38077913583996
 30
0.0
 10
-9.93400675125997
 20
9.348462033951565
 30
0.0
 10
-10.66156929735917
 20
9.281317237259515
 30
0.0
 10
-11.2294199695975
 20
9.158356019542314
 30
0.0
 10
-11.9277288273391
 20
8.885014141438182
 30
0.0
 10
-12.63554424773526
 20
8.566793201105726
 30
0.0
 10
-13.21142341538933
 20
8.225093600531876
 30
0.0
 10
-13.61305305845748
 20
7.876062006754454
 30
0.0
 10
-13.8116773630322
 20
7.56698826842354
 30
0.0
 10
-13.89498991243769
 20
7.282057166019063
 30
0.0
 10
-13.87773964146473
 20
6.640738219088398
 30
0.0
 10
-13.72868295610616
 20
6.059400104407779
 30
0.0
 10
-13.55018670564457
 20
5.652972791436704
 30
0.0
 10
-13.39524472408636
 20
5.396758929383893
 30
0.0
 10
-13.26389796143736
 20
5.238802562222397
 30
0.0
 10
-13.15922721958471
 20
5.143680622471779
 30
0.0
 10
-13.10047223200332
 20
5.098556794481399
 30
0.0
 10
-12.97794266427112
 20
5.022027734418985
 30
0.0
 10
-12.57608665553305
 20
4.793326812618941
 30
0.0
 10
-11.72327932219691
 20
4.291806740246283
 30
0.0
 10
-10.60031793527536
 20
3.730910577701423
 30
0.0
 10
-9.65222819011179
 20
3.377728779157324
 30
0.0
 10
-9.219265153910326
 20
3.260629731583736
 30
0.0
 10
-8.992854355148687
 20
3.215279026936757
 30
0.0
  0
SPLINE
  5
77
330
1F
100
AcDbEntity
  8
0
  6
Continuous
 62
     7
370
    25
100
AcDbSpline
210
0.0
220
0.0
230
1.0
 70
     8
 71
     3
 72
    38
 73
    34
 74
     0
 42
0.00000001
 43
0.00000001
 40
0.0087847528782111
 40
0.0087847528782111
 40
0.0087847528782111
 40
0.0087847528782111
 40
0.010977730072185
 40
0.03125
 40
0.0625
 40
0.125
 40
0.1875
 40
0.25
 40
0.3125
 40
0.375
 40
0.4375
 40
0.5
 40
0.53125
 40
0.5625
 40
0.59375
 40
0.625
 40
0.65625
 40
0.6875
 40
0.75
 40
0.78125
 40
0.8125
 40
0.84375
 40
0.875
 40
0.90625
 40
0.921875
 40
0.9296875
 40
0.9375
 40
0.9453125
 40
0.953125
 40
0.96875
 40
0.984375
 40
0.9996447377388964
 40
0.9997154403566973
 40
0.9997154403566973
 40
0.9997154403566973
 40
0.9997154403566973
 10
8.792955702782905
 20
-17.96346139577582
 30
0.0
 10
8.789751676319495
 20
-17.95560528261833
 30
0.0
 10
8.756493011176229
 20
-17.87391025382808
 30
0.0
 10
8.674658322933741
 20
-17.66882759682901
 30
0.0
 10
8.473143530227865
 20
-17.13920202380239
 30
0.0
 10
8.18152234200347
 20
-16.28217245181171
 30
0.0
 10
7.87332499180148
 20
-15.12688818187094
 30
0.0
 10
7.687935235949356
 20
-13.9815809080052
 30
0.0
 10
7.686485968376263
 20
-12.98918656912149
 30
0.0
 10
7.881874012540807
 20
-12.34080081084881
 30
0.0
 10
8.105008022386704
 20
-12.10213527177928
 30
0.0
 10
8.426726620765145
 20
-11.93662341008044
 30
0.0
 10
9.255330048743062
 20
-11.87405674629372
 30
0.0
 10
10.06143708576065
 20
-11.84718227189912
 30
0.0
 10
10.97997673158157
 20
-11.78132816729444
 30
0.0
 10
12.03731108288848
 20
-11.54913145567359
 30
0.0
 10
12.90084013384716
 20
-11.20067979775702
 30
0.0
 10
14.05378257380941
 20
-10.68180553494034
 30
0.0
 10
15.23076194175113
 20
-9.925378086392342
 30
0.0
 10
16.12850307749978
 20
-8.662385101133276
 30
0.0
 10
16.4333356487214
 20
-7.420441445013582
 30
0.0
 10
16.36142635956165
 20
-6.267389776565818
 30
0.0
 10
16.06850151677712
 20
-5.081799091897124
 30
0.0
 10
15.59633932418087
 20
-4.135388040434503
 30
0.0
 10
15.10607527314778
 20
-3.53670778674629
 30
0.0
 10
14.77441465382629
 20
-3.228408392019538
 30
0.0
 10
14.48808788748864
 20
-3.013403395259107
 30
0.0
 10
14.21405414871177
 20
-2.848285897397093
 30
0.0
 10
13.84004719482304
 20
-2.635954373457103
 30
0.0
 10
12.93232332920399
 20
-2.101933051260661
 30
0.0
 10
11.38294930006046
 20
-1.322801643443782
 30
0.0
 10
10.15458996092522
 20
-0.9016937889176975
 30
0.0
 10
9.522133979012684
 20
-0.7713468529965074
 30
0.0
 10
9.51921207347401
 20
-0.770746504502898
 30
0.0
  0
SPLINE
  5
7A
330
1F
100
AcDbEntity
  8
0
  6
Continuous
 62
     7
370
    25
100
AcDbSpline
210
0.0
220
0.0
230
1.0
 70
     8
 71
     3
 72
    41
 73
    37
 74
     0
 42
0.00000001
 43
0.00000001
 40
0.0077667708820952
 40
0.0077667708820952
 40
0.0077667708820952
 40
0.0077667708820952
 40
0.0097029591676459
 40
0.03125
 40
0.0625
 40
0.125
 40
0.1875
 40
0.25
 40
0.3125
 40
0.375
 40
0.4375
 40
0.46875
 40
0.5
 40
0.53125
 40
0.5625
 40
0.59375
 40
0.625
 40
0.65625
 40
0.6875
 40
0.71875
 40
0.75
 40
0.78125
 40
0.8125
 40
0.84375
 40
0.875
 40
0.890625
 40
0.90625
 40
0.921875
 40
0.9296875
 40
0.9375
 40
0.9453125
 40
0.953125
 40
0.96875
 40
0.984375
 40
0.9921875
 40
1.0
 40
1.0
 40
1.0
 40
1.0
 10
-6.48282559374704
 20
-18.92022467339522
 30
0.0
 10
-6.479643079270555
 20
-18.91243462122445
 30
0.0
 10
-6.440546177685675
 20
-18.81658337562173
 30
0.0
 10
-6.346672927811088
 20
-18.58165211882422
 30
0.0
 10
-6.118118263365697
 20
-17.98080810236986
 30
0.0
 10
-5.788945543160565
 20
-17.01419795458599
 30
0.0
 10
-5.428868328712158
 20
-15.66888337406661
 30
0.0
 10
-5.191072918391233
 20
-14.23051065039389
 30
0.0
 10
-5.174743858153525
 20
-12.76220860549158
 30
0.0
 10
-5.523807656322206
 20
-11.28368263929891
 30
0.0
 10
-6.409177328140793
 20
-10.16742468759186
 30
0.0
 10
-7.453609957727822
 20
-9.625573420887315
 30
0.0
 10
-8.349527016692333
 20
-9.42595118215045
 30
0.0
 10
-9.169805235652248
 20
-9.377043055494498
 30
0.0
 10
-9.947175883414971
 20
-9.351170470212326
 30
0.0
 10
-10.67474073622971
 20
-9.289097943991182
 30
0.0
 10
-11.23671698765165
 20
-9.169741100301025
 30
0.0
 10
-11.93155520234975
 20
-8.897082405493213
 30
0.0
 10
-12.63723167912107
 20
-8.577618744607014
 30
0.0
 10
-13.2113849316859
 20
-8.234205944212043
 30
0.0
 10
-13.6127172985095
 20
-7.883089355021215
 30
0.0
 10
-13.8126474645818
 20
-7.570728835323021
 30
0.0
 10
-13.89643360238102
 20
-7.282600510502196
 30
0.0
 10
-13.87916538439166
 20
-6.642379877739558
 30
0.0
 10
-13.73005171826658
 20
-6.060720657323701
 30
0.0
 10
-13.5514289875639
 20
-5.654040983319752
 30
0.0
 10
-13.39638715425742
 20
-5.39759877430043
 30
0.0
 10
-13.26497482751778
 20
-5.23950214231791
 30
0.0
 10
-13.16032297608717
 20
-5.144344514270212
 30
0.0
 10
-13.101616978578
 20
-5.099234995157133
 30
0.0
 10
-12.97935079295886
 20
-5.022822963428502
 30
0.0
 10
-12.5777082176047
 20
-4.794184260964499
 30
0.0
 10
-11.72447864499846
 20
-4.292467827086997
 30
0.0
 10
-10.60082366961031
 20
-3.731233704566818
 30
0.0
 10
-9.652287874766394
 20
-3.377819407895615
 30
0.0
 10
-9.21930385194906
 20
-3.260663105257558
 30
0.0
 10
-8.992854355139084
 20
-3.21527902693485
 30
0.0
  0
SPLINE
  5
7D
330
1F
100
AcDbEntity
  8
0
  6
Continuous
 62
     7
370
    25
100
AcDbSpline
210
0.0
220
0.0
230
1.0
 70
     8
 71
     3
 72
    38
 73
    34
 74
     0
 42
0.00000001
 43
0.00000001
 40
0.0037080723970448
 40
0.0037080723970448
 40
0.0037080723970448
 40
0.0037080723970448
 40
0.0046350904963112
 40
0.03125
 40
0.0625
 40
0.125
 40
0.1875
 40
0.25
 40
0.3125
 40
0.375
 40
0.4375
 40
0.5
 40
0.53125
 40
0.5625
 40
0.59375
 40
0.625
 40
0.65625
 40
0.6875
 40
0.75
 40
0.78125
 40
0.8125
 40
0.84375
 40
0.875
 40
0.90625
 40
0.921875
 40
0.9296875
 40
0.9375
 40
0.9453125
 40
0.953125
 40
0.96875
 40
0.984375
 40
0.9996451433903866
 40
0.9997161147129282
 40
0.9997161147129282
 40
0.9997161147129282
 40
0.9997161147129282
 10
-8.792937890502529
 20
17.96346772274053
 30
0.0
 10
-8.791562261535388
 20
17.96012621541566
 30
0.0
 10
-8.750267497191544
 20
17.85974701281687
 30
0.0
 10
-8.658336010469391
 20
17.63135150118724
 30
0.0
 10
-8.441705374835895
 20
17.0630289337927
 30
0.0
 10
-8.149451428789016
 20
16.20505650303154
 30
0.0
 10
-7.846325361434007
 20
15.06368757010986
 30
0.0
 10
-7.668843884715754
 20
13.94195512871587
 30
0.0
 10
-7.675333506228027
 20
12.97805077106914
 30
0.0
 10
-7.871146360216562
 20
12.35652348983597
 30
0.0
 10
-8.095991929187225
 20
12.11687343422321
 30
0.0
 10
-8.436711212693863
 20
11.94599893245939
 30
0.0
 10
-9.265416298271271
 20
11.87785086975083
 30
0.0
 10
-10.0685965177417
 20
11.84426244929801
 30
0.0
 10
-10.9824418150898
 20
11.77178141801089
 30
0.0
 10
-12.03159073585676
 20
11.5373738909563
 30
0.0
 10
-12.89243413339561
 20
11.19142826491101
 30
0.0
 10
-14.04518938092457
 20
10.6760924970381
 30
0.0
 10
-15.22455849819371
 20
9.925230094338572
 30
0.0
 10
-16.1269365463062
 20
8.663277487565521
 30
0.0
 10
-16.4326715949286
 20
7.419151393580932
 30
0.0
 10
-16.36041689856601
 20
6.266683053930825
 30
0.0
 10
-16.06777170219835
 20
5.081083431536039
 30
0.0
 10
-15.5955580834092
 20
4.134593176795857
 30
0.0
 10
-15.10504520682097
 20
3.535835762391318
 30
0.0
 10
-14.77320928768734
 20
3.227530287999725
 30
0.0
 10
-14.48671165177675
 20
3.012529547285017
 30
0.0
 10
-14.21270899454764
 20
2.847515376315934
 30
0.0
 10
-13.83888204046695
 20
2.635324177957048
 30
0.0
 10
-12.9316235866507
 20
2.10150808849427
 30
0.0
 10
-11.38294198125809
 20
1.322630304369959
 30
0.0
 10
-10.15465247753614
 20
0.901642716261594
 30
0.0
 10
-9.52214529407845
 20
0.7713488752179382
 30
0.0
 10
-9.519212073473646
 20
0.7707465045026712
 30
0.0
  0
ARC
  5
7F
330
1F
100
AcDbEntity
  8
0
  6
Continuous
 62
     7
370
    25
100
AcDbCircle
 10
0.0
 20
0.0
 30
0.0
 40
9.550363797990519
100
AcDbArc
 50
19.6738545275
 51
160.3261454725
  0
ARC
  5
80
330
1F
100
AcDbEntity
  8
0
  6
Continuous
 62
     7
370
    25
100
AcDbCircle
 10
0.0
 20
0.0
 30
0.0
 40
20.00004823424623
100
AcDbArc
 50
71.085163525
 51
108.9132236426
  0
ARC
  5
81
330
1F
100
AcDbEntity
  8
0
  6
Continuous
 62
     7
370
    25
100
AcDbCircle
 10
0.0
 20
0.0
 30
0.0
 40
9.550363797990324
100
AcDbArc
 50
355.3710036339
 51
4.6289963661
  0
ARC
  5
82
330
1F
100
AcDbEntity
  8
0
  6
Continuous
 62
     7
370
    25
100
AcDbCircle
 10
0.0000454823
 20
-0.0000314396
 30
0.0
 40
19.99999999999999
100
AcDbArc
 50
296.0812629432
 51
63.9175762712
  0
ARC
  5
83
330
1F
100
AcDbEntity
  8
0
  6
Continuous
 62
     7
370
    25
100
AcDbCircle
 10
0.0
 20
0.0
 30
0.0
 40
9.550363797990537
100
AcDbArc
 50
199.6738545275
 51
340.3261454725
  0
ARC
  5
84
330
1F
100
AcDbEntity
  8
0
  6
Continuous
 62
     7
370
    25
100
AcDbCircle
 10
0.0
 20
0.0
 30
0.0
 40
20.00004823420927
100
AcDbArc
 50
251.086489544
 51
288.913510456
  0
ARC
  5
85
330
1F
100
AcDbEntity
  8
0
  6
Continuous
 62
     7
370
    25
100
AcDbCircle
 10
0.0
 20
0.0
 30
0.0
 40
9.55036379799043
100
AcDbArc
 50
175.3710036339
 51
184.6289963661
  0
ARC
  5
86
330
1F
100
AcDbEntity
  8
0
  6
Continuous
 62
     7
370
    25
100
AcDbCircle
 10
0.0
 20
0.0
 30
0.0
 40
20.00004823424623
100
AcDbArc
 50
116.0812861544
 51
243.9186596258
  0
MTEXT
  5
88
330
1F
100
AcDbEntity
  8
0
  6
Continuous
 62
     7
100
AcDbMText
 10
-27.0
 20
-28.0195663917
 30
0.0
 40
4.83362
 41
0.0
 71
     1
 72
     1
  1
SOLIDWORKS Educational Product.
  7
SLDTEXTSTYLE0
 73
     1
 44
1.0
  0
MTEXT
  5
89
330
1F
100
AcDbEntity
  8
0
  6
Continuous
 62
     7
100
AcDbMText
 10
-27.0
 20
-35.2699963917
 30
0.0
 40
4.83362
 41
0.0
 71
     1
 72
     1
  1
For Instructional Use Only.
  7
SLDTEXTSTYLE0
 73
     1
 44
1.0
  0
ENDSEC
  0
SECTION
  2
OBJECTS
  0
DICTIONARY
  5
C
330
0
100
AcDbDictionary
281
     1
  3
ACAD_GROUP
350
D
  3
ACAD_LAYOUT
350
1A
  3
ACAD_MLINESTYLE
350
17
  3
ACAD_PLOTSETTINGS
350
19
  3
ACAD_PLOTSTYLENAME
350
E
  3
ACAD_SCALELIST
350
47
  3
DWGPROPS
350
8A
  0
DICTIONARY
  5
D
102
{ACAD_REACTORS
330
C
102
}
330
C
100
AcDbDictionary
281
     1
  0
DICTIONARY
  5
1A
102
{ACAD_REACTORS
330
C
102
}
330
C
100
AcDbDictionary
281
     1
  3
Layout1
350
1E
  3
Layout2
350
26
  3
Model
350
22
  0
DICTIONARY
  5
17
102
{ACAD_REACTORS
330
C
102
}
330
C
100
AcDbDictionary
281
     1
  3
Standard
350
18
  0
DICTIONARY
  5
19
102
{ACAD_REACTORS
330
C
102
}
330
C
100
AcDbDictionary
281
     1
  0
ACDBDICTIONARYWDFLT
  5
E
102
{ACAD_REACTORS
330
C
102
}
330
C
100
AcDbDictionary
281
     1
  3
Normal
350
F
100
AcDbDictionaryWithDefault
340
F
  0
DICTIONARY
  5
47
102
{ACAD_REACTORS
330
C
102
}
330
C
100
AcDbDictionary
281
     1
  3
A0
350
48
  3
A1
350
49
  3
A2
350
4A
  3
A3
350
4B
  3
A4
350
4C
  3
A5
350
4D
  3
A6
350
4E
  3
A7
350
4F
  3
A8
350
50
  3
A9
350
51
  3
B0
350
52
  3
B1
350
53
  3
B2
350
54
  3
B3
350
55
  3
B4
350
56
  3
B5
350
57
  3
B6
350
58
  0
XRECORD
  5
8A
102
{ACAD_REACTORS
330
C
102
}
330
C
100
AcDbXrecord
280
     1
  1
DWGPROPS COOKIE
  2

  3

  4

  6

  7

  8
gal65
  9

300
=
301
=
302
=
303
=
304
=
305
=
306
=
307
=
308
=
309
=
 40
0.0
 41
2460164.269827211
 42
2460164.26991066
  1

 90
        0
  0
LAYOUT
  5
1E
102
{ACAD_REACTORS
330
1A
102
}
330
1A
100
AcDbPlotSettings
  1

  2
none_device
  4

  6

 40
0.0
 41
0.0
 42
0.0
 43
0.0
 44
0.0
 45
0.0
 46
0.0
 47
0.0
 48
0.0
 49
0.0
140
0.0
141
0.0
142
1.0
143
1.0
 70
   688
 72
     1
 73
     0
 74
     5
  7

 75
    16
147
1.0
148
0.0
149
0.0
100
AcDbLayout
  1
Layout1
 70
     1
 71
     1
 10
0.0
 20
0.0
 11
420.0
 21
297.0
 12
0.0
 22
0.0
 32
0.0
 14
1.0000000000E+20
 24
1.0000000000E+20
 34
1.0000000000E+20
 15
-1.0000000000E+20
 25
-1.0000000000E+20
 35
-1.0000000000E+20
146
0.0
 13
0.0
 23
0.0
 33
0.0
 16
1.0
 26
0.0
 36
0.0
 17
0.0
 27
1.0
 37
0.0
 76
     0
330
1B
  0
LAYOUT
  5
26
102
{ACAD_REACTORS
330
1A
102
}
330
1A
100
AcDbPlotSettings
  1

  2
none_device
  4

  6

 40
0.0
 41
0.0
 42
0.0
 43
0.0
 44
0.0
 45
0.0
 46
0.0
 47
0.0
 48
0.0
 49
0.0
140
0.0
141
0.0
142
1.0
143
1.0
 70
   688
 72
     1
 73
     0
 74
     5
  7

 75
    16
147
1.0
148
0.0
149
0.0
100
AcDbLayout
  1
Layout2
 70
     1
 71
     2
 10
0.0
 20
0.0
 11
0.0
 21
0.0
 12
0.0
 22
0.0
 32
0.0
 14
0.0
 24
0.0
 34
0.0
 15
0.0
 25
0.0
 35
0.0
146
0.0
 13
0.0
 23
0.0
 33
0.0
 16
1.0
 26
0.0
 36
0.0
 17
0.0
 27
1.0
 37
0.0
 76
     0
330
23
  0
LAYOUT
  5
22
102
{ACAD_REACTORS
330
1A
102
}
330
1A
100
AcDbPlotSettings
  1

  2
none_device
  4
ANSI_A_(11.00_x_8.50_Inches)
  6

 40
6.35
 41
19.05
 42
6.35000508
 43
19.05000254
 44
279.4
 45
215.9
 46
133.34999746
 47
88.89999873
 48
0.0
 49
0.0
140
0.0
141
0.0
142
0.1558333333
143
1.0
 70
  1696
 72
     0
 73
     0
 74
     0
  7

 75
     0
147
0.0179189148
148
-1300.4909072572
149
0.0
100
AcDbLayout
  1
Model
 70
     1
 71
     0
 10
0.0
 20
0.0
 11
420.0
 21
297.0
 12
0.0
 22
0.0
 32
0.0
 14
-27.0
 24
-27.0
 34
0.0
 15
27.0
 25
27.0
 35
0.0
146
0.0
 13
0.0
 23
0.0
 33
0.0
 16
1.0
 26
0.0
 36
0.0
 17
0.0
 27
1.0
 37
0.0
 76
     0
330
1F
331
29
  0
MLINESTYLE
  5
18
102
{ACAD_REACTORS
330
17
102
}
330
17
100
AcDbMlineStyle
  2
Standard
 70
     0
  3

 62
   256
 51
90.0
 52
90.0
 71
     2
 49
0.5
 62
   256
  6
BYLAYER
 49
-0.5
 62
   256
  6
BYLAYER
  0
ACDBPLACEHOLDER
  5
F
102
{ACAD_REACTORS
330
E
102
}
330
E
  0
SCALE
  5
48
102
{ACAD_REACTORS
330
47
102
}
330
47
100
AcDbScale
 70
     0
300
1:1
140
1.0
141
1.0
290
     1
  0
SCALE
  5
49
102
{ACAD_REACTORS
330
47
102
}
330
47
100
AcDbScale
 70
     0
300
1:2
140
1.0
141
2.0
290
     0
  0
SCALE
  5
4A
102
{ACAD_REACTORS
330
47
102
}
330
47
100
AcDbScale
 70
     0
300
1:4
140
1.0
141
4.0
290
     0
  0
SCALE
  5
4B
102
{ACAD_REACTORS
330
47
102
}
330
47
100
AcDbScale
 70
     0
300
1:5
140
1.0
141
5.0
290
     0
  0
SCALE
  5
4C
102
{ACAD_REACTORS
330
47
102
}
330
47
100
AcDbScale
 70
     0
300
1:8
140
1.0
141
8.0
290
     0
  0
SCALE
  5
4D
102
{ACAD_REACTORS
330
47
102
}
330
47
100
AcDbScale
 70
     0
300
1:10
140
1.0
141
10.0
290
     0
  0
SCALE
  5
4E
102
{ACAD_REACTORS
330
47
102
}
330
47
100
AcDbScale
 70
     0
300
1:16
140
1.0
141
16.0
290
     0
  0
SCALE
  5
4F
102
{ACAD_REACTORS
330
47
102
}
330
47
100
AcDbScale
 70
     0
300
1:20
140
1.0
141
20.0
290
     0
  0
SCALE
  5
50
102
{ACAD_REACTORS
330
47
102
}
330
47
100
AcDbScale
 70
     0
300
1:30
140
1.0
141
30.0
290
     0
  0
SCALE
  5
51
102
{ACAD_REACTORS
330
47
102
}
330
47
100
AcDbScale
 70
     0
300
1:40
140
1.0
141
40.0
290
     0
  0
SCALE
  5
52
102
{ACAD_REACTORS
330
47
102
}
330
47
100
AcDbScale
 70
     0
300
1:50
140
1.0
141
50.0
290
     0
  0
SCALE
  5
53
102
{ACAD_REACTORS
330
47
102
}
330
47
100
AcDbScale
 70
     0
300
1:100
140
1.0
141
100.0
290
     0
  0
SCALE
  5
54
102
{ACAD_REACTORS
330
47
102
}
330
47
100
AcDbScale
 70
     0
300
2:1
140
2.0
141
1.0
290
     0
  0
SCALE
  5
55
102
{ACAD_REACTORS
330
47
102
}
330
47
100
AcDbScale
 70
     0
300
4:1
140
4.0
141
1.0
290
     0
  0
SCALE
  5
56
102
{ACAD_REACTORS
330
47
102
}
330
47
100
AcDbScale
 70
     0
300
8:1
140
8.0
141
1.0
290
     0
  0
SCALE
  5
57
102
{ACAD_REACTORS
330
47
102
}
330
47
100
AcDbScale
 70
     0
300
10:1
140
10.0
141
1.0
290
     0
  0
SCALE
  5
58
102
{ACAD_REACTORS
330
47
102
}
330
47
100
AcDbScale
 70
     0
300
100:1
140
100.0
141
1.0
290
     0
  0
ENDSEC
  0
EOF
